<?xml version="1.0" encoding="utf-8" standalone="no"?>
<!DOCTYPE svg PUBLIC "-//W3C//DTD SVG 1.1//EN"
  "http://www.w3.org/Graphics/SVG/1.1/DTD/svg11.dtd">
<svg xmlns:xlink="http://www.w3.org/1999/xlink" width="1072.252812pt" height="567.034375pt" viewBox="0 0 1072.252812 567.034375" xmlns="http://www.w3.org/2000/svg" version="1.1">
 <metadata>
  <rdf:RDF xmlns:dc="http://purl.org/dc/elements/1.1/" xmlns:cc="http://creativecommons.org/ns#" xmlns:rdf="http://www.w3.org/1999/02/22-rdf-syntax-ns#">
   <cc:Work>
    <dc:type rdf:resource="http://purl.org/dc/dcmitype/StillImage"/>
    <dc:date>2024-07-03T14:34:32.049382</dc:date>
    <dc:format>image/svg+xml</dc:format>
    <dc:creator>
     <cc:Agent>
      <dc:title>Matplotlib v3.7.2, https://matplotlib.org/</dc:title>
     </cc:Agent>
    </dc:creator>
   </cc:Work>
  </rdf:RDF>
 </metadata>
 <defs>
  <style type="text/css">*{stroke-linejoin: round; stroke-linecap: butt}</style>
 </defs>
 <g id="figure_1">
  <g id="patch_1">
   <path d="M 0 567.034375 
L 1072.252812 567.034375 
L 1072.252812 0 
L 0 0 
z
" style="fill: #ffffff"/>
  </g>
  <g id="axes_1">
   <g id="patch_2">
    <path d="M 74.532813 529.478125 
L 1065.052813 529.478125 
L 1065.052813 22.318125 
L 74.532813 22.318125 
z
" style="fill: #ffffff"/>
   </g>
   <g id="patch_3">
    <path d="M 119.556449 529.478125 
L 143.89355 529.478125 
L 143.89355 469.101935 
L 119.556449 469.101935 
z
" clip-path="url(#p8e85c872e3)" style="fill: #0000ff"/>
   </g>
   <g id="patch_4">
    <path d="M 119.556449 529.478125 
L 143.89355 529.478125 
L 143.89355 499.29003 
L 119.556449 499.29003 
z
" clip-path="url(#p8e85c872e3)" style="fill: #008000"/>
   </g>
   <g id="patch_5">
    <path d="M 119.556449 529.478125 
L 143.89355 529.478125 
L 143.89355 499.29003 
L 119.556449 499.29003 
z
" clip-path="url(#p8e85c872e3)" style="fill: #ffa500"/>
   </g>
   <g id="patch_6">
    <path d="M 119.556449 408.725744 
L 143.89355 408.725744 
L 143.89355 348.349554 
L 119.556449 348.349554 
z
" clip-path="url(#p8e85c872e3)" style="fill: #0000ff"/>
   </g>
   <g id="patch_7">
    <path d="M 119.556449 408.725744 
L 143.89355 408.725744 
L 143.89355 378.537649 
L 119.556449 378.537649 
z
" clip-path="url(#p8e85c872e3)" style="fill: #008000"/>
   </g>
   <g id="patch_8">
    <path d="M 119.556449 408.725744 
L 143.89355 408.725744 
L 143.89355 378.537649 
L 119.556449 378.537649 
z
" clip-path="url(#p8e85c872e3)" style="fill: #ffa500"/>
   </g>
   <g id="patch_9">
    <path d="M 119.556449 287.973363 
L 143.89355 287.973363 
L 143.89355 227.597173 
L 119.556449 227.597173 
z
" clip-path="url(#p8e85c872e3)" style="fill: #0000ff"/>
   </g>
   <g id="patch_10">
    <path d="M 119.556449 287.973363 
L 143.89355 287.973363 
L 143.89355 257.785268 
L 119.556449 257.785268 
z
" clip-path="url(#p8e85c872e3)" style="fill: #008000"/>
   </g>
   <g id="patch_11">
    <path d="M 119.556449 287.973363 
L 143.89355 287.973363 
L 143.89355 257.785268 
L 119.556449 257.785268 
z
" clip-path="url(#p8e85c872e3)" style="fill: #ffa500"/>
   </g>
   <g id="patch_12">
    <path d="M 119.556449 167.220982 
L 143.89355 167.220982 
L 143.89355 46.468601 
L 119.556449 46.468601 
z
" clip-path="url(#p8e85c872e3)" style="fill: #0000ff"/>
   </g>
   <g id="patch_13">
    <path d="M 119.556449 167.220982 
L 143.89355 167.220982 
L 143.89355 167.220982 
L 119.556449 167.220982 
z
" clip-path="url(#p8e85c872e3)" style="fill: #008000"/>
   </g>
   <g id="patch_14">
    <path d="M 119.556449 167.220982 
L 143.89355 167.220982 
L 143.89355 167.220982 
L 119.556449 167.220982 
z
" clip-path="url(#p8e85c872e3)" style="fill: #ffa500"/>
   </g>
   <g id="patch_15">
    <path d="M 156.0621 529.478125 
L 180.399201 529.478125 
L 180.399201 469.101935 
L 156.0621 469.101935 
z
" clip-path="url(#p8e85c872e3)" style="fill: #0000ff"/>
   </g>
   <g id="patch_16">
    <path d="M 156.0621 529.478125 
L 180.399201 529.478125 
L 180.399201 499.29003 
L 156.0621 499.29003 
z
" clip-path="url(#p8e85c872e3)" style="fill: #008000"/>
   </g>
   <g id="patch_17">
    <path d="M 156.0621 529.478125 
L 180.399201 529.478125 
L 180.399201 499.29003 
L 156.0621 499.29003 
z
" clip-path="url(#p8e85c872e3)" style="fill: #ffa500"/>
   </g>
   <g id="patch_18">
    <path d="M 156.0621 408.725744 
L 180.399201 408.725744 
L 180.399201 348.349554 
L 156.0621 348.349554 
z
" clip-path="url(#p8e85c872e3)" style="fill: #0000ff"/>
   </g>
   <g id="patch_19">
    <path d="M 156.0621 408.725744 
L 180.399201 408.725744 
L 180.399201 378.537649 
L 156.0621 378.537649 
z
" clip-path="url(#p8e85c872e3)" style="fill: #008000"/>
   </g>
   <g id="patch_20">
    <path d="M 156.0621 408.725744 
L 180.399201 408.725744 
L 180.399201 378.537649 
L 156.0621 378.537649 
z
" clip-path="url(#p8e85c872e3)" style="fill: #ffa500"/>
   </g>
   <g id="patch_21">
    <path d="M 156.0621 287.973363 
L 180.399201 287.973363 
L 180.399201 227.597173 
L 156.0621 227.597173 
z
" clip-path="url(#p8e85c872e3)" style="fill: #0000ff"/>
   </g>
   <g id="patch_22">
    <path d="M 156.0621 287.973363 
L 180.399201 287.973363 
L 180.399201 257.785268 
L 156.0621 257.785268 
z
" clip-path="url(#p8e85c872e3)" style="fill: #008000"/>
   </g>
   <g id="patch_23">
    <path d="M 156.0621 287.973363 
L 180.399201 287.973363 
L 180.399201 257.785268 
L 156.0621 257.785268 
z
" clip-path="url(#p8e85c872e3)" style="fill: #ffa500"/>
   </g>
   <g id="patch_24">
    <path d="M 156.0621 167.220982 
L 180.399201 167.220982 
L 180.399201 46.468601 
L 156.0621 46.468601 
z
" clip-path="url(#p8e85c872e3)" style="fill: #0000ff"/>
   </g>
   <g id="patch_25">
    <path d="M 156.0621 167.220982 
L 180.399201 167.220982 
L 180.399201 167.220982 
L 156.0621 167.220982 
z
" clip-path="url(#p8e85c872e3)" style="fill: #008000"/>
   </g>
   <g id="patch_26">
    <path d="M 156.0621 167.220982 
L 180.399201 167.220982 
L 180.399201 167.220982 
L 156.0621 167.220982 
z
" clip-path="url(#p8e85c872e3)" style="fill: #ffa500"/>
   </g>
   <g id="patch_27">
    <path d="M 192.567751 529.478125 
L 216.904852 529.478125 
L 216.904852 469.101935 
L 192.567751 469.101935 
z
" clip-path="url(#p8e85c872e3)" style="fill: #0000ff"/>
   </g>
   <g id="patch_28">
    <path d="M 192.567751 529.478125 
L 216.904852 529.478125 
L 216.904852 499.29003 
L 192.567751 499.29003 
z
" clip-path="url(#p8e85c872e3)" style="fill: #008000"/>
   </g>
   <g id="patch_29">
    <path d="M 192.567751 529.478125 
L 216.904852 529.478125 
L 216.904852 499.29003 
L 192.567751 499.29003 
z
" clip-path="url(#p8e85c872e3)" style="fill: #ffa500"/>
   </g>
   <g id="patch_30">
    <path d="M 192.567751 408.725744 
L 216.904852 408.725744 
L 216.904852 348.349554 
L 192.567751 348.349554 
z
" clip-path="url(#p8e85c872e3)" style="fill: #0000ff"/>
   </g>
   <g id="patch_31">
    <path d="M 192.567751 408.725744 
L 216.904852 408.725744 
L 216.904852 378.537649 
L 192.567751 378.537649 
z
" clip-path="url(#p8e85c872e3)" style="fill: #008000"/>
   </g>
   <g id="patch_32">
    <path d="M 192.567751 408.725744 
L 216.904852 408.725744 
L 216.904852 378.537649 
L 192.567751 378.537649 
z
" clip-path="url(#p8e85c872e3)" style="fill: #ffa500"/>
   </g>
   <g id="patch_33">
    <path d="M 192.567751 287.973363 
L 216.904852 287.973363 
L 216.904852 227.597173 
L 192.567751 227.597173 
z
" clip-path="url(#p8e85c872e3)" style="fill: #0000ff"/>
   </g>
   <g id="patch_34">
    <path d="M 192.567751 287.973363 
L 216.904852 287.973363 
L 216.904852 257.785268 
L 192.567751 257.785268 
z
" clip-path="url(#p8e85c872e3)" style="fill: #008000"/>
   </g>
   <g id="patch_35">
    <path d="M 192.567751 287.973363 
L 216.904852 287.973363 
L 216.904852 257.785268 
L 192.567751 257.785268 
z
" clip-path="url(#p8e85c872e3)" style="fill: #ffa500"/>
   </g>
   <g id="patch_36">
    <path d="M 192.567751 167.220982 
L 216.904852 167.220982 
L 216.904852 46.468601 
L 192.567751 46.468601 
z
" clip-path="url(#p8e85c872e3)" style="fill: #0000ff"/>
   </g>
   <g id="patch_37">
    <path d="M 192.567751 167.220982 
L 216.904852 167.220982 
L 216.904852 167.220982 
L 192.567751 167.220982 
z
" clip-path="url(#p8e85c872e3)" style="fill: #008000"/>
   </g>
   <g id="patch_38">
    <path d="M 192.567751 167.220982 
L 216.904852 167.220982 
L 216.904852 167.220982 
L 192.567751 167.220982 
z
" clip-path="url(#p8e85c872e3)" style="fill: #ffa500"/>
   </g>
   <g id="patch_39">
    <path d="M 229.073402 529.478125 
L 253.410503 529.478125 
L 253.410503 469.101935 
L 229.073402 469.101935 
z
" clip-path="url(#p8e85c872e3)" style="fill: #0000ff"/>
   </g>
   <g id="patch_40">
    <path d="M 229.073402 529.478125 
L 253.410503 529.478125 
L 253.410503 499.29003 
L 229.073402 499.29003 
z
" clip-path="url(#p8e85c872e3)" style="fill: #008000"/>
   </g>
   <g id="patch_41">
    <path d="M 229.073402 529.478125 
L 253.410503 529.478125 
L 253.410503 499.29003 
L 229.073402 499.29003 
z
" clip-path="url(#p8e85c872e3)" style="fill: #ffa500"/>
   </g>
   <g id="patch_42">
    <path d="M 229.073402 408.725744 
L 253.410503 408.725744 
L 253.410503 348.349554 
L 229.073402 348.349554 
z
" clip-path="url(#p8e85c872e3)" style="fill: #0000ff"/>
   </g>
   <g id="patch_43">
    <path d="M 229.073402 408.725744 
L 253.410503 408.725744 
L 253.410503 378.537649 
L 229.073402 378.537649 
z
" clip-path="url(#p8e85c872e3)" style="fill: #008000"/>
   </g>
   <g id="patch_44">
    <path d="M 229.073402 408.725744 
L 253.410503 408.725744 
L 253.410503 378.537649 
L 229.073402 378.537649 
z
" clip-path="url(#p8e85c872e3)" style="fill: #ffa500"/>
   </g>
   <g id="patch_45">
    <path d="M 229.073402 287.973363 
L 253.410503 287.973363 
L 253.410503 227.597173 
L 229.073402 227.597173 
z
" clip-path="url(#p8e85c872e3)" style="fill: #0000ff"/>
   </g>
   <g id="patch_46">
    <path d="M 229.073402 287.973363 
L 253.410503 287.973363 
L 253.410503 257.785268 
L 229.073402 257.785268 
z
" clip-path="url(#p8e85c872e3)" style="fill: #008000"/>
   </g>
   <g id="patch_47">
    <path d="M 229.073402 287.973363 
L 253.410503 287.973363 
L 253.410503 257.785268 
L 229.073402 257.785268 
z
" clip-path="url(#p8e85c872e3)" style="fill: #ffa500"/>
   </g>
   <g id="patch_48">
    <path d="M 229.073402 167.220982 
L 253.410503 167.220982 
L 253.410503 46.468601 
L 229.073402 46.468601 
z
" clip-path="url(#p8e85c872e3)" style="fill: #0000ff"/>
   </g>
   <g id="patch_49">
    <path d="M 229.073402 167.220982 
L 253.410503 167.220982 
L 253.410503 167.220982 
L 229.073402 167.220982 
z
" clip-path="url(#p8e85c872e3)" style="fill: #008000"/>
   </g>
   <g id="patch_50">
    <path d="M 229.073402 167.220982 
L 253.410503 167.220982 
L 253.410503 167.220982 
L 229.073402 167.220982 
z
" clip-path="url(#p8e85c872e3)" style="fill: #ffa500"/>
   </g>
   <g id="patch_51">
    <path d="M 265.579053 529.478125 
L 289.916154 529.478125 
L 289.916154 469.101935 
L 265.579053 469.101935 
z
" clip-path="url(#p8e85c872e3)" style="fill: #0000ff"/>
   </g>
   <g id="patch_52">
    <path d="M 265.579053 529.478125 
L 289.916154 529.478125 
L 289.916154 499.29003 
L 265.579053 499.29003 
z
" clip-path="url(#p8e85c872e3)" style="fill: #008000"/>
   </g>
   <g id="patch_53">
    <path d="M 265.579053 529.478125 
L 289.916154 529.478125 
L 289.916154 499.29003 
L 265.579053 499.29003 
z
" clip-path="url(#p8e85c872e3)" style="fill: #ffa500"/>
   </g>
   <g id="patch_54">
    <path d="M 265.579053 408.725744 
L 289.916154 408.725744 
L 289.916154 348.349554 
L 265.579053 348.349554 
z
" clip-path="url(#p8e85c872e3)" style="fill: #0000ff"/>
   </g>
   <g id="patch_55">
    <path d="M 265.579053 408.725744 
L 289.916154 408.725744 
L 289.916154 378.537649 
L 265.579053 378.537649 
z
" clip-path="url(#p8e85c872e3)" style="fill: #008000"/>
   </g>
   <g id="patch_56">
    <path d="M 265.579053 408.725744 
L 289.916154 408.725744 
L 289.916154 378.537649 
L 265.579053 378.537649 
z
" clip-path="url(#p8e85c872e3)" style="fill: #ffa500"/>
   </g>
   <g id="patch_57">
    <path d="M 265.579053 287.973363 
L 289.916154 287.973363 
L 289.916154 227.597173 
L 265.579053 227.597173 
z
" clip-path="url(#p8e85c872e3)" style="fill: #0000ff"/>
   </g>
   <g id="patch_58">
    <path d="M 265.579053 287.973363 
L 289.916154 287.973363 
L 289.916154 257.785268 
L 265.579053 257.785268 
z
" clip-path="url(#p8e85c872e3)" style="fill: #008000"/>
   </g>
   <g id="patch_59">
    <path d="M 265.579053 287.973363 
L 289.916154 287.973363 
L 289.916154 257.785268 
L 265.579053 257.785268 
z
" clip-path="url(#p8e85c872e3)" style="fill: #ffa500"/>
   </g>
   <g id="patch_60">
    <path d="M 265.579053 167.220982 
L 289.916154 167.220982 
L 289.916154 46.468601 
L 265.579053 46.468601 
z
" clip-path="url(#p8e85c872e3)" style="fill: #0000ff"/>
   </g>
   <g id="patch_61">
    <path d="M 265.579053 167.220982 
L 289.916154 167.220982 
L 289.916154 167.220982 
L 265.579053 167.220982 
z
" clip-path="url(#p8e85c872e3)" style="fill: #008000"/>
   </g>
   <g id="patch_62">
    <path d="M 265.579053 167.220982 
L 289.916154 167.220982 
L 289.916154 167.220982 
L 265.579053 167.220982 
z
" clip-path="url(#p8e85c872e3)" style="fill: #ffa500"/>
   </g>
   <g id="patch_63">
    <path d="M 302.084704 529.478125 
L 326.421805 529.478125 
L 326.421805 469.101935 
L 302.084704 469.101935 
z
" clip-path="url(#p8e85c872e3)" style="fill: #0000ff"/>
   </g>
   <g id="patch_64">
    <path d="M 302.084704 529.478125 
L 326.421805 529.478125 
L 326.421805 499.29003 
L 302.084704 499.29003 
z
" clip-path="url(#p8e85c872e3)" style="fill: #008000"/>
   </g>
   <g id="patch_65">
    <path d="M 302.084704 529.478125 
L 326.421805 529.478125 
L 326.421805 499.29003 
L 302.084704 499.29003 
z
" clip-path="url(#p8e85c872e3)" style="fill: #ffa500"/>
   </g>
   <g id="patch_66">
    <path d="M 302.084704 408.725744 
L 326.421805 408.725744 
L 326.421805 348.349554 
L 302.084704 348.349554 
z
" clip-path="url(#p8e85c872e3)" style="fill: #0000ff"/>
   </g>
   <g id="patch_67">
    <path d="M 302.084704 408.725744 
L 326.421805 408.725744 
L 326.421805 378.537649 
L 302.084704 378.537649 
z
" clip-path="url(#p8e85c872e3)" style="fill: #008000"/>
   </g>
   <g id="patch_68">
    <path d="M 302.084704 408.725744 
L 326.421805 408.725744 
L 326.421805 378.537649 
L 302.084704 378.537649 
z
" clip-path="url(#p8e85c872e3)" style="fill: #ffa500"/>
   </g>
   <g id="patch_69">
    <path d="M 302.084704 287.973363 
L 326.421805 287.973363 
L 326.421805 227.597173 
L 302.084704 227.597173 
z
" clip-path="url(#p8e85c872e3)" style="fill: #0000ff"/>
   </g>
   <g id="patch_70">
    <path d="M 302.084704 287.973363 
L 326.421805 287.973363 
L 326.421805 257.785268 
L 302.084704 257.785268 
z
" clip-path="url(#p8e85c872e3)" style="fill: #008000"/>
   </g>
   <g id="patch_71">
    <path d="M 302.084704 287.973363 
L 326.421805 287.973363 
L 326.421805 257.785268 
L 302.084704 257.785268 
z
" clip-path="url(#p8e85c872e3)" style="fill: #ffa500"/>
   </g>
   <g id="patch_72">
    <path d="M 302.084704 167.220982 
L 326.421805 167.220982 
L 326.421805 46.468601 
L 302.084704 46.468601 
z
" clip-path="url(#p8e85c872e3)" style="fill: #0000ff"/>
   </g>
   <g id="patch_73">
    <path d="M 302.084704 167.220982 
L 326.421805 167.220982 
L 326.421805 167.220982 
L 302.084704 167.220982 
z
" clip-path="url(#p8e85c872e3)" style="fill: #008000"/>
   </g>
   <g id="patch_74">
    <path d="M 302.084704 167.220982 
L 326.421805 167.220982 
L 326.421805 167.220982 
L 302.084704 167.220982 
z
" clip-path="url(#p8e85c872e3)" style="fill: #ffa500"/>
   </g>
   <g id="patch_75">
    <path d="M 338.590355 529.478125 
L 362.927456 529.478125 
L 362.927456 469.101935 
L 338.590355 469.101935 
z
" clip-path="url(#p8e85c872e3)" style="fill: #0000ff"/>
   </g>
   <g id="patch_76">
    <path d="M 338.590355 529.478125 
L 362.927456 529.478125 
L 362.927456 499.29003 
L 338.590355 499.29003 
z
" clip-path="url(#p8e85c872e3)" style="fill: #008000"/>
   </g>
   <g id="patch_77">
    <path d="M 338.590355 529.478125 
L 362.927456 529.478125 
L 362.927456 499.29003 
L 338.590355 499.29003 
z
" clip-path="url(#p8e85c872e3)" style="fill: #ffa500"/>
   </g>
   <g id="patch_78">
    <path d="M 338.590355 408.725744 
L 362.927456 408.725744 
L 362.927456 348.349554 
L 338.590355 348.349554 
z
" clip-path="url(#p8e85c872e3)" style="fill: #0000ff"/>
   </g>
   <g id="patch_79">
    <path d="M 338.590355 408.725744 
L 362.927456 408.725744 
L 362.927456 378.537649 
L 338.590355 378.537649 
z
" clip-path="url(#p8e85c872e3)" style="fill: #008000"/>
   </g>
   <g id="patch_80">
    <path d="M 338.590355 408.725744 
L 362.927456 408.725744 
L 362.927456 378.537649 
L 338.590355 378.537649 
z
" clip-path="url(#p8e85c872e3)" style="fill: #ffa500"/>
   </g>
   <g id="patch_81">
    <path d="M 338.590355 287.973363 
L 362.927456 287.973363 
L 362.927456 227.597173 
L 338.590355 227.597173 
z
" clip-path="url(#p8e85c872e3)" style="fill: #0000ff"/>
   </g>
   <g id="patch_82">
    <path d="M 338.590355 287.973363 
L 362.927456 287.973363 
L 362.927456 257.785268 
L 338.590355 257.785268 
z
" clip-path="url(#p8e85c872e3)" style="fill: #008000"/>
   </g>
   <g id="patch_83">
    <path d="M 338.590355 287.973363 
L 362.927456 287.973363 
L 362.927456 257.785268 
L 338.590355 257.785268 
z
" clip-path="url(#p8e85c872e3)" style="fill: #ffa500"/>
   </g>
   <g id="patch_84">
    <path d="M 338.590355 167.220982 
L 362.927456 167.220982 
L 362.927456 46.468601 
L 338.590355 46.468601 
z
" clip-path="url(#p8e85c872e3)" style="fill: #0000ff"/>
   </g>
   <g id="patch_85">
    <path d="M 338.590355 167.220982 
L 362.927456 167.220982 
L 362.927456 167.220982 
L 338.590355 167.220982 
z
" clip-path="url(#p8e85c872e3)" style="fill: #008000"/>
   </g>
   <g id="patch_86">
    <path d="M 338.590355 167.220982 
L 362.927456 167.220982 
L 362.927456 167.220982 
L 338.590355 167.220982 
z
" clip-path="url(#p8e85c872e3)" style="fill: #ffa500"/>
   </g>
   <g id="patch_87">
    <path d="M 375.096007 529.478125 
L 399.433107 529.478125 
L 399.433107 424.999866 
L 375.096007 424.999866 
z
" clip-path="url(#p8e85c872e3)" style="fill: #0000ff"/>
   </g>
   <g id="patch_88">
    <path d="M 375.096007 529.478125 
L 399.433107 529.478125 
L 399.433107 521.341064 
L 375.096007 521.341064 
z
" clip-path="url(#p8e85c872e3)" style="fill: #008000"/>
   </g>
   <g id="patch_89">
    <path d="M 375.096007 529.478125 
L 399.433107 529.478125 
L 399.433107 521.341064 
L 375.096007 521.341064 
z
" clip-path="url(#p8e85c872e3)" style="fill: #ffa500"/>
   </g>
   <g id="patch_90">
    <path d="M 375.096007 408.725744 
L 399.433107 408.725744 
L 399.433107 348.349554 
L 375.096007 348.349554 
z
" clip-path="url(#p8e85c872e3)" style="fill: #0000ff"/>
   </g>
   <g id="patch_91">
    <path d="M 375.096007 408.725744 
L 399.433107 408.725744 
L 399.433107 378.537649 
L 375.096007 378.537649 
z
" clip-path="url(#p8e85c872e3)" style="fill: #008000"/>
   </g>
   <g id="patch_92">
    <path d="M 375.096007 408.725744 
L 399.433107 408.725744 
L 399.433107 378.537649 
L 375.096007 378.537649 
z
" clip-path="url(#p8e85c872e3)" style="fill: #ffa500"/>
   </g>
   <g id="patch_93">
    <path d="M 375.096007 287.973363 
L 399.433107 287.973363 
L 399.433107 227.597173 
L 375.096007 227.597173 
z
" clip-path="url(#p8e85c872e3)" style="fill: #0000ff"/>
   </g>
   <g id="patch_94">
    <path d="M 375.096007 287.973363 
L 399.433107 287.973363 
L 399.433107 257.785268 
L 375.096007 257.785268 
z
" clip-path="url(#p8e85c872e3)" style="fill: #008000"/>
   </g>
   <g id="patch_95">
    <path d="M 375.096007 287.973363 
L 399.433107 287.973363 
L 399.433107 257.785268 
L 375.096007 257.785268 
z
" clip-path="url(#p8e85c872e3)" style="fill: #ffa500"/>
   </g>
   <g id="patch_96">
    <path d="M 375.096007 167.220982 
L 399.433107 167.220982 
L 399.433107 46.468601 
L 375.096007 46.468601 
z
" clip-path="url(#p8e85c872e3)" style="fill: #0000ff"/>
   </g>
   <g id="patch_97">
    <path d="M 375.096007 167.220982 
L 399.433107 167.220982 
L 399.433107 167.220982 
L 375.096007 167.220982 
z
" clip-path="url(#p8e85c872e3)" style="fill: #008000"/>
   </g>
   <g id="patch_98">
    <path d="M 375.096007 167.220982 
L 399.433107 167.220982 
L 399.433107 167.220982 
L 375.096007 167.220982 
z
" clip-path="url(#p8e85c872e3)" style="fill: #ffa500"/>
   </g>
   <g id="patch_99">
    <path d="M 411.601658 529.478125 
L 435.938758 529.478125 
L 435.938758 409.022264 
L 411.601658 409.022264 
z
" clip-path="url(#p8e85c872e3)" style="fill: #0000ff"/>
   </g>
   <g id="patch_100">
    <path d="M 411.601658 529.478125 
L 435.938758 529.478125 
L 435.938758 529.329865 
L 411.601658 529.329865 
z
" clip-path="url(#p8e85c872e3)" style="fill: #008000"/>
   </g>
   <g id="patch_101">
    <path d="M 411.601658 529.478125 
L 435.938758 529.478125 
L 435.938758 529.329865 
L 411.601658 529.329865 
z
" clip-path="url(#p8e85c872e3)" style="fill: #ffa500"/>
   </g>
   <g id="patch_102">
    <path d="M 411.601658 408.725744 
L 435.938758 408.725744 
L 435.938758 348.349554 
L 411.601658 348.349554 
z
" clip-path="url(#p8e85c872e3)" style="fill: #0000ff"/>
   </g>
   <g id="patch_103">
    <path d="M 411.601658 408.725744 
L 435.938758 408.725744 
L 435.938758 378.537649 
L 411.601658 378.537649 
z
" clip-path="url(#p8e85c872e3)" style="fill: #008000"/>
   </g>
   <g id="patch_104">
    <path d="M 411.601658 408.725744 
L 435.938758 408.725744 
L 435.938758 378.537649 
L 411.601658 378.537649 
z
" clip-path="url(#p8e85c872e3)" style="fill: #ffa500"/>
   </g>
   <g id="patch_105">
    <path d="M 411.601658 287.973363 
L 435.938758 287.973363 
L 435.938758 227.597173 
L 411.601658 227.597173 
z
" clip-path="url(#p8e85c872e3)" style="fill: #0000ff"/>
   </g>
   <g id="patch_106">
    <path d="M 411.601658 287.973363 
L 435.938758 287.973363 
L 435.938758 257.785268 
L 411.601658 257.785268 
z
" clip-path="url(#p8e85c872e3)" style="fill: #008000"/>
   </g>
   <g id="patch_107">
    <path d="M 411.601658 287.973363 
L 435.938758 287.973363 
L 435.938758 257.785268 
L 411.601658 257.785268 
z
" clip-path="url(#p8e85c872e3)" style="fill: #ffa500"/>
   </g>
   <g id="patch_108">
    <path d="M 411.601658 167.220982 
L 435.938758 167.220982 
L 435.938758 46.468601 
L 411.601658 46.468601 
z
" clip-path="url(#p8e85c872e3)" style="fill: #0000ff"/>
   </g>
   <g id="patch_109">
    <path d="M 411.601658 167.220982 
L 435.938758 167.220982 
L 435.938758 167.220982 
L 411.601658 167.220982 
z
" clip-path="url(#p8e85c872e3)" style="fill: #008000"/>
   </g>
   <g id="patch_110">
    <path d="M 411.601658 167.220982 
L 435.938758 167.220982 
L 435.938758 167.220982 
L 411.601658 167.220982 
z
" clip-path="url(#p8e85c872e3)" style="fill: #ffa500"/>
   </g>
   <g id="patch_111">
    <path d="M 448.107309 529.478125 
L 472.44441 529.478125 
L 472.44441 408.726024 
L 448.107309 408.726024 
z
" clip-path="url(#p8e85c872e3)" style="fill: #0000ff"/>
   </g>
   <g id="patch_112">
    <path d="M 448.107309 529.478125 
L 472.44441 529.478125 
L 472.44441 529.477985 
L 448.107309 529.477985 
z
" clip-path="url(#p8e85c872e3)" style="fill: #008000"/>
   </g>
   <g id="patch_113">
    <path d="M 448.107309 529.478125 
L 472.44441 529.478125 
L 472.44441 529.477985 
L 448.107309 529.477985 
z
" clip-path="url(#p8e85c872e3)" style="fill: #ffa500"/>
   </g>
   <g id="patch_114">
    <path d="M 448.107309 408.725744 
L 472.44441 408.725744 
L 472.44441 348.349554 
L 448.107309 348.349554 
z
" clip-path="url(#p8e85c872e3)" style="fill: #0000ff"/>
   </g>
   <g id="patch_115">
    <path d="M 448.107309 408.725744 
L 472.44441 408.725744 
L 472.44441 378.537649 
L 448.107309 378.537649 
z
" clip-path="url(#p8e85c872e3)" style="fill: #008000"/>
   </g>
   <g id="patch_116">
    <path d="M 448.107309 408.725744 
L 472.44441 408.725744 
L 472.44441 378.537649 
L 448.107309 378.537649 
z
" clip-path="url(#p8e85c872e3)" style="fill: #ffa500"/>
   </g>
   <g id="patch_117">
    <path d="M 448.107309 287.973363 
L 472.44441 287.973363 
L 472.44441 227.597173 
L 448.107309 227.597173 
z
" clip-path="url(#p8e85c872e3)" style="fill: #0000ff"/>
   </g>
   <g id="patch_118">
    <path d="M 448.107309 287.973363 
L 472.44441 287.973363 
L 472.44441 257.785268 
L 448.107309 257.785268 
z
" clip-path="url(#p8e85c872e3)" style="fill: #008000"/>
   </g>
   <g id="patch_119">
    <path d="M 448.107309 287.973363 
L 472.44441 287.973363 
L 472.44441 257.785268 
L 448.107309 257.785268 
z
" clip-path="url(#p8e85c872e3)" style="fill: #ffa500"/>
   </g>
   <g id="patch_120">
    <path d="M 448.107309 167.220982 
L 472.44441 167.220982 
L 472.44441 46.468601 
L 448.107309 46.468601 
z
" clip-path="url(#p8e85c872e3)" style="fill: #0000ff"/>
   </g>
   <g id="patch_121">
    <path d="M 448.107309 167.220982 
L 472.44441 167.220982 
L 472.44441 167.220982 
L 448.107309 167.220982 
z
" clip-path="url(#p8e85c872e3)" style="fill: #008000"/>
   </g>
   <g id="patch_122">
    <path d="M 448.107309 167.220982 
L 472.44441 167.220982 
L 472.44441 167.220982 
L 448.107309 167.220982 
z
" clip-path="url(#p8e85c872e3)" style="fill: #ffa500"/>
   </g>
   <g id="patch_123">
    <path d="M 484.61296 529.478125 
L 508.950061 529.478125 
L 508.950061 408.725744 
L 484.61296 408.725744 
z
" clip-path="url(#p8e85c872e3)" style="fill: #0000ff"/>
   </g>
   <g id="patch_124">
    <path d="M 484.61296 529.478125 
L 508.950061 529.478125 
L 508.950061 529.478125 
L 484.61296 529.478125 
z
" clip-path="url(#p8e85c872e3)" style="fill: #008000"/>
   </g>
   <g id="patch_125">
    <path d="M 484.61296 529.478125 
L 508.950061 529.478125 
L 508.950061 529.478125 
L 484.61296 529.478125 
z
" clip-path="url(#p8e85c872e3)" style="fill: #ffa500"/>
   </g>
   <g id="patch_126">
    <path d="M 484.61296 408.725744 
L 508.950061 408.725744 
L 508.950061 287.973363 
L 484.61296 287.973363 
z
" clip-path="url(#p8e85c872e3)" style="fill: #0000ff"/>
   </g>
   <g id="patch_127">
    <path d="M 484.61296 408.725744 
L 508.950061 408.725744 
L 508.950061 408.725744 
L 484.61296 408.725744 
z
" clip-path="url(#p8e85c872e3)" style="fill: #008000"/>
   </g>
   <g id="patch_128">
    <path d="M 484.61296 408.725744 
L 508.950061 408.725744 
L 508.950061 408.725744 
L 484.61296 408.725744 
z
" clip-path="url(#p8e85c872e3)" style="fill: #ffa500"/>
   </g>
   <g id="patch_129">
    <path d="M 484.61296 287.973363 
L 508.950061 287.973363 
L 508.950061 227.597173 
L 484.61296 227.597173 
z
" clip-path="url(#p8e85c872e3)" style="fill: #0000ff"/>
   </g>
   <g id="patch_130">
    <path d="M 484.61296 287.973363 
L 508.950061 287.973363 
L 508.950061 257.785268 
L 484.61296 257.785268 
z
" clip-path="url(#p8e85c872e3)" style="fill: #008000"/>
   </g>
   <g id="patch_131">
    <path d="M 484.61296 287.973363 
L 508.950061 287.973363 
L 508.950061 257.785268 
L 484.61296 257.785268 
z
" clip-path="url(#p8e85c872e3)" style="fill: #ffa500"/>
   </g>
   <g id="patch_132">
    <path d="M 484.61296 167.220982 
L 508.950061 167.220982 
L 508.950061 46.468601 
L 484.61296 46.468601 
z
" clip-path="url(#p8e85c872e3)" style="fill: #0000ff"/>
   </g>
   <g id="patch_133">
    <path d="M 484.61296 167.220982 
L 508.950061 167.220982 
L 508.950061 167.220982 
L 484.61296 167.220982 
z
" clip-path="url(#p8e85c872e3)" style="fill: #008000"/>
   </g>
   <g id="patch_134">
    <path d="M 484.61296 167.220982 
L 508.950061 167.220982 
L 508.950061 167.220982 
L 484.61296 167.220982 
z
" clip-path="url(#p8e85c872e3)" style="fill: #ffa500"/>
   </g>
   <g id="patch_135">
    <path d="M 521.118611 529.478125 
L 545.455712 529.478125 
L 545.455712 408.725744 
L 521.118611 408.725744 
z
" clip-path="url(#p8e85c872e3)" style="fill: #0000ff"/>
   </g>
   <g id="patch_136">
    <path d="M 521.118611 529.478125 
L 545.455712 529.478125 
L 545.455712 529.478125 
L 521.118611 529.478125 
z
" clip-path="url(#p8e85c872e3)" style="fill: #008000"/>
   </g>
   <g id="patch_137">
    <path d="M 521.118611 529.478125 
L 545.455712 529.478125 
L 545.455712 529.478125 
L 521.118611 529.478125 
z
" clip-path="url(#p8e85c872e3)" style="fill: #ffa500"/>
   </g>
   <g id="patch_138">
    <path d="M 521.118611 408.725744 
L 545.455712 408.725744 
L 545.455712 287.973363 
L 521.118611 287.973363 
z
" clip-path="url(#p8e85c872e3)" style="fill: #0000ff"/>
   </g>
   <g id="patch_139">
    <path d="M 521.118611 408.725744 
L 545.455712 408.725744 
L 545.455712 408.725744 
L 521.118611 408.725744 
z
" clip-path="url(#p8e85c872e3)" style="fill: #008000"/>
   </g>
   <g id="patch_140">
    <path d="M 521.118611 408.725744 
L 545.455712 408.725744 
L 545.455712 408.725744 
L 521.118611 408.725744 
z
" clip-path="url(#p8e85c872e3)" style="fill: #ffa500"/>
   </g>
   <g id="patch_141">
    <path d="M 521.118611 287.973363 
L 545.455712 287.973363 
L 545.455712 227.597173 
L 521.118611 227.597173 
z
" clip-path="url(#p8e85c872e3)" style="fill: #0000ff"/>
   </g>
   <g id="patch_142">
    <path d="M 521.118611 287.973363 
L 545.455712 287.973363 
L 545.455712 257.785268 
L 521.118611 257.785268 
z
" clip-path="url(#p8e85c872e3)" style="fill: #008000"/>
   </g>
   <g id="patch_143">
    <path d="M 521.118611 287.973363 
L 545.455712 287.973363 
L 545.455712 257.785268 
L 521.118611 257.785268 
z
" clip-path="url(#p8e85c872e3)" style="fill: #ffa500"/>
   </g>
   <g id="patch_144">
    <path d="M 521.118611 167.220982 
L 545.455712 167.220982 
L 545.455712 46.468601 
L 521.118611 46.468601 
z
" clip-path="url(#p8e85c872e3)" style="fill: #0000ff"/>
   </g>
   <g id="patch_145">
    <path d="M 521.118611 167.220982 
L 545.455712 167.220982 
L 545.455712 167.220982 
L 521.118611 167.220982 
z
" clip-path="url(#p8e85c872e3)" style="fill: #008000"/>
   </g>
   <g id="patch_146">
    <path d="M 521.118611 167.220982 
L 545.455712 167.220982 
L 545.455712 167.220982 
L 521.118611 167.220982 
z
" clip-path="url(#p8e85c872e3)" style="fill: #ffa500"/>
   </g>
   <g id="patch_147">
    <path d="M 557.624262 529.478125 
L 581.961363 529.478125 
L 581.961363 408.725744 
L 557.624262 408.725744 
z
" clip-path="url(#p8e85c872e3)" style="fill: #0000ff"/>
   </g>
   <g id="patch_148">
    <path d="M 557.624262 529.478125 
L 581.961363 529.478125 
L 581.961363 529.478125 
L 557.624262 529.478125 
z
" clip-path="url(#p8e85c872e3)" style="fill: #008000"/>
   </g>
   <g id="patch_149">
    <path d="M 557.624262 529.478125 
L 581.961363 529.478125 
L 581.961363 529.478125 
L 557.624262 529.478125 
z
" clip-path="url(#p8e85c872e3)" style="fill: #ffa500"/>
   </g>
   <g id="patch_150">
    <path d="M 557.624262 408.725744 
L 581.961363 408.725744 
L 581.961363 287.973363 
L 557.624262 287.973363 
z
" clip-path="url(#p8e85c872e3)" style="fill: #0000ff"/>
   </g>
   <g id="patch_151">
    <path d="M 557.624262 408.725744 
L 581.961363 408.725744 
L 581.961363 408.725744 
L 557.624262 408.725744 
z
" clip-path="url(#p8e85c872e3)" style="fill: #008000"/>
   </g>
   <g id="patch_152">
    <path d="M 557.624262 408.725744 
L 581.961363 408.725744 
L 581.961363 408.725744 
L 557.624262 408.725744 
z
" clip-path="url(#p8e85c872e3)" style="fill: #ffa500"/>
   </g>
   <g id="patch_153">
    <path d="M 557.624262 287.973363 
L 581.961363 287.973363 
L 581.961363 227.597173 
L 557.624262 227.597173 
z
" clip-path="url(#p8e85c872e3)" style="fill: #0000ff"/>
   </g>
   <g id="patch_154">
    <path d="M 557.624262 287.973363 
L 581.961363 287.973363 
L 581.961363 257.785268 
L 557.624262 257.785268 
z
" clip-path="url(#p8e85c872e3)" style="fill: #008000"/>
   </g>
   <g id="patch_155">
    <path d="M 557.624262 287.973363 
L 581.961363 287.973363 
L 581.961363 257.785268 
L 557.624262 257.785268 
z
" clip-path="url(#p8e85c872e3)" style="fill: #ffa500"/>
   </g>
   <g id="patch_156">
    <path d="M 557.624262 167.220982 
L 581.961363 167.220982 
L 581.961363 46.468601 
L 557.624262 46.468601 
z
" clip-path="url(#p8e85c872e3)" style="fill: #0000ff"/>
   </g>
   <g id="patch_157">
    <path d="M 557.624262 167.220982 
L 581.961363 167.220982 
L 581.961363 167.220982 
L 557.624262 167.220982 
z
" clip-path="url(#p8e85c872e3)" style="fill: #008000"/>
   </g>
   <g id="patch_158">
    <path d="M 557.624262 167.220982 
L 581.961363 167.220982 
L 581.961363 167.220982 
L 557.624262 167.220982 
z
" clip-path="url(#p8e85c872e3)" style="fill: #ffa500"/>
   </g>
   <g id="patch_159">
    <path d="M 594.129913 529.478125 
L 618.467014 529.478125 
L 618.467014 408.725744 
L 594.129913 408.725744 
z
" clip-path="url(#p8e85c872e3)" style="fill: #0000ff"/>
   </g>
   <g id="patch_160">
    <path d="M 594.129913 529.478125 
L 618.467014 529.478125 
L 618.467014 529.478125 
L 594.129913 529.478125 
z
" clip-path="url(#p8e85c872e3)" style="fill: #008000"/>
   </g>
   <g id="patch_161">
    <path d="M 594.129913 529.478125 
L 618.467014 529.478125 
L 618.467014 529.478125 
L 594.129913 529.478125 
z
" clip-path="url(#p8e85c872e3)" style="fill: #ffa500"/>
   </g>
   <g id="patch_162">
    <path d="M 594.129913 408.725744 
L 618.467014 408.725744 
L 618.467014 287.973363 
L 594.129913 287.973363 
z
" clip-path="url(#p8e85c872e3)" style="fill: #0000ff"/>
   </g>
   <g id="patch_163">
    <path d="M 594.129913 408.725744 
L 618.467014 408.725744 
L 618.467014 408.725744 
L 594.129913 408.725744 
z
" clip-path="url(#p8e85c872e3)" style="fill: #008000"/>
   </g>
   <g id="patch_164">
    <path d="M 594.129913 408.725744 
L 618.467014 408.725744 
L 618.467014 408.725744 
L 594.129913 408.725744 
z
" clip-path="url(#p8e85c872e3)" style="fill: #ffa500"/>
   </g>
   <g id="patch_165">
    <path d="M 594.129913 287.973363 
L 618.467014 287.973363 
L 618.467014 227.597173 
L 594.129913 227.597173 
z
" clip-path="url(#p8e85c872e3)" style="fill: #0000ff"/>
   </g>
   <g id="patch_166">
    <path d="M 594.129913 287.973363 
L 618.467014 287.973363 
L 618.467014 257.785268 
L 594.129913 257.785268 
z
" clip-path="url(#p8e85c872e3)" style="fill: #008000"/>
   </g>
   <g id="patch_167">
    <path d="M 594.129913 287.973363 
L 618.467014 287.973363 
L 618.467014 257.785268 
L 594.129913 257.785268 
z
" clip-path="url(#p8e85c872e3)" style="fill: #ffa500"/>
   </g>
   <g id="patch_168">
    <path d="M 594.129913 167.220982 
L 618.467014 167.220982 
L 618.467014 46.468601 
L 594.129913 46.468601 
z
" clip-path="url(#p8e85c872e3)" style="fill: #0000ff"/>
   </g>
   <g id="patch_169">
    <path d="M 594.129913 167.220982 
L 618.467014 167.220982 
L 618.467014 167.220982 
L 594.129913 167.220982 
z
" clip-path="url(#p8e85c872e3)" style="fill: #008000"/>
   </g>
   <g id="patch_170">
    <path d="M 594.129913 167.220982 
L 618.467014 167.220982 
L 618.467014 167.220982 
L 594.129913 167.220982 
z
" clip-path="url(#p8e85c872e3)" style="fill: #ffa500"/>
   </g>
   <g id="patch_171">
    <path d="M 630.635564 529.478125 
L 654.972665 529.478125 
L 654.972665 408.725744 
L 630.635564 408.725744 
z
" clip-path="url(#p8e85c872e3)" style="fill: #0000ff"/>
   </g>
   <g id="patch_172">
    <path d="M 630.635564 529.478125 
L 654.972665 529.478125 
L 654.972665 529.478125 
L 630.635564 529.478125 
z
" clip-path="url(#p8e85c872e3)" style="fill: #008000"/>
   </g>
   <g id="patch_173">
    <path d="M 630.635564 529.478125 
L 654.972665 529.478125 
L 654.972665 529.478125 
L 630.635564 529.478125 
z
" clip-path="url(#p8e85c872e3)" style="fill: #ffa500"/>
   </g>
   <g id="patch_174">
    <path d="M 630.635564 408.725744 
L 654.972665 408.725744 
L 654.972665 287.973363 
L 630.635564 287.973363 
z
" clip-path="url(#p8e85c872e3)" style="fill: #0000ff"/>
   </g>
   <g id="patch_175">
    <path d="M 630.635564 408.725744 
L 654.972665 408.725744 
L 654.972665 408.725744 
L 630.635564 408.725744 
z
" clip-path="url(#p8e85c872e3)" style="fill: #008000"/>
   </g>
   <g id="patch_176">
    <path d="M 630.635564 408.725744 
L 654.972665 408.725744 
L 654.972665 408.725744 
L 630.635564 408.725744 
z
" clip-path="url(#p8e85c872e3)" style="fill: #ffa500"/>
   </g>
   <g id="patch_177">
    <path d="M 630.635564 287.973363 
L 654.972665 287.973363 
L 654.972665 227.597173 
L 630.635564 227.597173 
z
" clip-path="url(#p8e85c872e3)" style="fill: #0000ff"/>
   </g>
   <g id="patch_178">
    <path d="M 630.635564 287.973363 
L 654.972665 287.973363 
L 654.972665 257.785268 
L 630.635564 257.785268 
z
" clip-path="url(#p8e85c872e3)" style="fill: #008000"/>
   </g>
   <g id="patch_179">
    <path d="M 630.635564 287.973363 
L 654.972665 287.973363 
L 654.972665 257.785268 
L 630.635564 257.785268 
z
" clip-path="url(#p8e85c872e3)" style="fill: #ffa500"/>
   </g>
   <g id="patch_180">
    <path d="M 630.635564 167.220982 
L 654.972665 167.220982 
L 654.972665 46.468601 
L 630.635564 46.468601 
z
" clip-path="url(#p8e85c872e3)" style="fill: #0000ff"/>
   </g>
   <g id="patch_181">
    <path d="M 630.635564 167.220982 
L 654.972665 167.220982 
L 654.972665 167.220982 
L 630.635564 167.220982 
z
" clip-path="url(#p8e85c872e3)" style="fill: #008000"/>
   </g>
   <g id="patch_182">
    <path d="M 630.635564 167.220982 
L 654.972665 167.220982 
L 654.972665 167.220982 
L 630.635564 167.220982 
z
" clip-path="url(#p8e85c872e3)" style="fill: #ffa500"/>
   </g>
   <g id="patch_183">
    <path d="M 667.141215 529.478125 
L 691.478316 529.478125 
L 691.478316 408.725744 
L 667.141215 408.725744 
z
" clip-path="url(#p8e85c872e3)" style="fill: #0000ff"/>
   </g>
   <g id="patch_184">
    <path d="M 667.141215 529.478125 
L 691.478316 529.478125 
L 691.478316 529.478125 
L 667.141215 529.478125 
z
" clip-path="url(#p8e85c872e3)" style="fill: #008000"/>
   </g>
   <g id="patch_185">
    <path d="M 667.141215 529.478125 
L 691.478316 529.478125 
L 691.478316 529.478125 
L 667.141215 529.478125 
z
" clip-path="url(#p8e85c872e3)" style="fill: #ffa500"/>
   </g>
   <g id="patch_186">
    <path d="M 667.141215 408.725744 
L 691.478316 408.725744 
L 691.478316 287.973363 
L 667.141215 287.973363 
z
" clip-path="url(#p8e85c872e3)" style="fill: #0000ff"/>
   </g>
   <g id="patch_187">
    <path d="M 667.141215 408.725744 
L 691.478316 408.725744 
L 691.478316 408.725744 
L 667.141215 408.725744 
z
" clip-path="url(#p8e85c872e3)" style="fill: #008000"/>
   </g>
   <g id="patch_188">
    <path d="M 667.141215 408.725744 
L 691.478316 408.725744 
L 691.478316 408.725744 
L 667.141215 408.725744 
z
" clip-path="url(#p8e85c872e3)" style="fill: #ffa500"/>
   </g>
   <g id="patch_189">
    <path d="M 667.141215 287.973363 
L 691.478316 287.973363 
L 691.478316 227.597173 
L 667.141215 227.597173 
z
" clip-path="url(#p8e85c872e3)" style="fill: #0000ff"/>
   </g>
   <g id="patch_190">
    <path d="M 667.141215 287.973363 
L 691.478316 287.973363 
L 691.478316 257.785268 
L 667.141215 257.785268 
z
" clip-path="url(#p8e85c872e3)" style="fill: #008000"/>
   </g>
   <g id="patch_191">
    <path d="M 667.141215 287.973363 
L 691.478316 287.973363 
L 691.478316 257.785268 
L 667.141215 257.785268 
z
" clip-path="url(#p8e85c872e3)" style="fill: #ffa500"/>
   </g>
   <g id="patch_192">
    <path d="M 667.141215 167.220982 
L 691.478316 167.220982 
L 691.478316 46.468601 
L 667.141215 46.468601 
z
" clip-path="url(#p8e85c872e3)" style="fill: #0000ff"/>
   </g>
   <g id="patch_193">
    <path d="M 667.141215 167.220982 
L 691.478316 167.220982 
L 691.478316 167.220982 
L 667.141215 167.220982 
z
" clip-path="url(#p8e85c872e3)" style="fill: #008000"/>
   </g>
   <g id="patch_194">
    <path d="M 667.141215 167.220982 
L 691.478316 167.220982 
L 691.478316 167.220982 
L 667.141215 167.220982 
z
" clip-path="url(#p8e85c872e3)" style="fill: #ffa500"/>
   </g>
   <g id="patch_195">
    <path d="M 703.646867 529.478125 
L 727.983967 529.478125 
L 727.983967 408.725744 
L 703.646867 408.725744 
z
" clip-path="url(#p8e85c872e3)" style="fill: #0000ff"/>
   </g>
   <g id="patch_196">
    <path d="M 703.646867 529.478125 
L 727.983967 529.478125 
L 727.983967 529.478125 
L 703.646867 529.478125 
z
" clip-path="url(#p8e85c872e3)" style="fill: #008000"/>
   </g>
   <g id="patch_197">
    <path d="M 703.646867 529.478125 
L 727.983967 529.478125 
L 727.983967 529.478125 
L 703.646867 529.478125 
z
" clip-path="url(#p8e85c872e3)" style="fill: #ffa500"/>
   </g>
   <g id="patch_198">
    <path d="M 703.646867 408.725744 
L 727.983967 408.725744 
L 727.983967 287.973363 
L 703.646867 287.973363 
z
" clip-path="url(#p8e85c872e3)" style="fill: #0000ff"/>
   </g>
   <g id="patch_199">
    <path d="M 703.646867 408.725744 
L 727.983967 408.725744 
L 727.983967 408.725744 
L 703.646867 408.725744 
z
" clip-path="url(#p8e85c872e3)" style="fill: #008000"/>
   </g>
   <g id="patch_200">
    <path d="M 703.646867 408.725744 
L 727.983967 408.725744 
L 727.983967 408.725744 
L 703.646867 408.725744 
z
" clip-path="url(#p8e85c872e3)" style="fill: #ffa500"/>
   </g>
   <g id="patch_201">
    <path d="M 703.646867 287.973363 
L 727.983967 287.973363 
L 727.983967 227.597173 
L 703.646867 227.597173 
z
" clip-path="url(#p8e85c872e3)" style="fill: #0000ff"/>
   </g>
   <g id="patch_202">
    <path d="M 703.646867 287.973363 
L 727.983967 287.973363 
L 727.983967 257.785268 
L 703.646867 257.785268 
z
" clip-path="url(#p8e85c872e3)" style="fill: #008000"/>
   </g>
   <g id="patch_203">
    <path d="M 703.646867 287.973363 
L 727.983967 287.973363 
L 727.983967 257.785268 
L 703.646867 257.785268 
z
" clip-path="url(#p8e85c872e3)" style="fill: #ffa500"/>
   </g>
   <g id="patch_204">
    <path d="M 703.646867 167.220982 
L 727.983967 167.220982 
L 727.983967 46.468601 
L 703.646867 46.468601 
z
" clip-path="url(#p8e85c872e3)" style="fill: #0000ff"/>
   </g>
   <g id="patch_205">
    <path d="M 703.646867 167.220982 
L 727.983967 167.220982 
L 727.983967 167.220982 
L 703.646867 167.220982 
z
" clip-path="url(#p8e85c872e3)" style="fill: #008000"/>
   </g>
   <g id="patch_206">
    <path d="M 703.646867 167.220982 
L 727.983967 167.220982 
L 727.983967 167.220982 
L 703.646867 167.220982 
z
" clip-path="url(#p8e85c872e3)" style="fill: #ffa500"/>
   </g>
   <g id="patch_207">
    <path d="M 740.152518 529.478125 
L 764.489618 529.478125 
L 764.489618 408.725744 
L 740.152518 408.725744 
z
" clip-path="url(#p8e85c872e3)" style="fill: #0000ff"/>
   </g>
   <g id="patch_208">
    <path d="M 740.152518 529.478125 
L 764.489618 529.478125 
L 764.489618 529.478125 
L 740.152518 529.478125 
z
" clip-path="url(#p8e85c872e3)" style="fill: #008000"/>
   </g>
   <g id="patch_209">
    <path d="M 740.152518 529.478125 
L 764.489618 529.478125 
L 764.489618 529.478125 
L 740.152518 529.478125 
z
" clip-path="url(#p8e85c872e3)" style="fill: #ffa500"/>
   </g>
   <g id="patch_210">
    <path d="M 740.152518 408.725744 
L 764.489618 408.725744 
L 764.489618 287.973363 
L 740.152518 287.973363 
z
" clip-path="url(#p8e85c872e3)" style="fill: #0000ff"/>
   </g>
   <g id="patch_211">
    <path d="M 740.152518 408.725744 
L 764.489618 408.725744 
L 764.489618 408.725744 
L 740.152518 408.725744 
z
" clip-path="url(#p8e85c872e3)" style="fill: #008000"/>
   </g>
   <g id="patch_212">
    <path d="M 740.152518 408.725744 
L 764.489618 408.725744 
L 764.489618 408.725744 
L 740.152518 408.725744 
z
" clip-path="url(#p8e85c872e3)" style="fill: #ffa500"/>
   </g>
   <g id="patch_213">
    <path d="M 740.152518 287.973363 
L 764.489618 287.973363 
L 764.489618 227.597173 
L 740.152518 227.597173 
z
" clip-path="url(#p8e85c872e3)" style="fill: #0000ff"/>
   </g>
   <g id="patch_214">
    <path d="M 740.152518 287.973363 
L 764.489618 287.973363 
L 764.489618 257.785268 
L 740.152518 257.785268 
z
" clip-path="url(#p8e85c872e3)" style="fill: #008000"/>
   </g>
   <g id="patch_215">
    <path d="M 740.152518 287.973363 
L 764.489618 287.973363 
L 764.489618 257.785268 
L 740.152518 257.785268 
z
" clip-path="url(#p8e85c872e3)" style="fill: #ffa500"/>
   </g>
   <g id="patch_216">
    <path d="M 740.152518 167.220982 
L 764.489618 167.220982 
L 764.489618 46.468601 
L 740.152518 46.468601 
z
" clip-path="url(#p8e85c872e3)" style="fill: #0000ff"/>
   </g>
   <g id="patch_217">
    <path d="M 740.152518 167.220982 
L 764.489618 167.220982 
L 764.489618 167.220982 
L 740.152518 167.220982 
z
" clip-path="url(#p8e85c872e3)" style="fill: #008000"/>
   </g>
   <g id="patch_218">
    <path d="M 740.152518 167.220982 
L 764.489618 167.220982 
L 764.489618 167.220982 
L 740.152518 167.220982 
z
" clip-path="url(#p8e85c872e3)" style="fill: #ffa500"/>
   </g>
   <g id="patch_219">
    <path d="M 776.658169 529.478125 
L 800.99527 529.478125 
L 800.99527 408.725744 
L 776.658169 408.725744 
z
" clip-path="url(#p8e85c872e3)" style="fill: #0000ff"/>
   </g>
   <g id="patch_220">
    <path d="M 776.658169 529.478125 
L 800.99527 529.478125 
L 800.99527 529.478125 
L 776.658169 529.478125 
z
" clip-path="url(#p8e85c872e3)" style="fill: #008000"/>
   </g>
   <g id="patch_221">
    <path d="M 776.658169 529.478125 
L 800.99527 529.478125 
L 800.99527 529.478125 
L 776.658169 529.478125 
z
" clip-path="url(#p8e85c872e3)" style="fill: #ffa500"/>
   </g>
   <g id="patch_222">
    <path d="M 776.658169 408.725744 
L 800.99527 408.725744 
L 800.99527 287.973363 
L 776.658169 287.973363 
z
" clip-path="url(#p8e85c872e3)" style="fill: #0000ff"/>
   </g>
   <g id="patch_223">
    <path d="M 776.658169 408.725744 
L 800.99527 408.725744 
L 800.99527 408.725744 
L 776.658169 408.725744 
z
" clip-path="url(#p8e85c872e3)" style="fill: #008000"/>
   </g>
   <g id="patch_224">
    <path d="M 776.658169 408.725744 
L 800.99527 408.725744 
L 800.99527 408.725744 
L 776.658169 408.725744 
z
" clip-path="url(#p8e85c872e3)" style="fill: #ffa500"/>
   </g>
   <g id="patch_225">
    <path d="M 776.658169 287.973363 
L 800.99527 287.973363 
L 800.99527 227.597173 
L 776.658169 227.597173 
z
" clip-path="url(#p8e85c872e3)" style="fill: #0000ff"/>
   </g>
   <g id="patch_226">
    <path d="M 776.658169 287.973363 
L 800.99527 287.973363 
L 800.99527 257.785268 
L 776.658169 257.785268 
z
" clip-path="url(#p8e85c872e3)" style="fill: #008000"/>
   </g>
   <g id="patch_227">
    <path d="M 776.658169 287.973363 
L 800.99527 287.973363 
L 800.99527 257.785268 
L 776.658169 257.785268 
z
" clip-path="url(#p8e85c872e3)" style="fill: #ffa500"/>
   </g>
   <g id="patch_228">
    <path d="M 776.658169 167.220982 
L 800.99527 167.220982 
L 800.99527 46.468601 
L 776.658169 46.468601 
z
" clip-path="url(#p8e85c872e3)" style="fill: #0000ff"/>
   </g>
   <g id="patch_229">
    <path d="M 776.658169 167.220982 
L 800.99527 167.220982 
L 800.99527 167.220982 
L 776.658169 167.220982 
z
" clip-path="url(#p8e85c872e3)" style="fill: #008000"/>
   </g>
   <g id="patch_230">
    <path d="M 776.658169 167.220982 
L 800.99527 167.220982 
L 800.99527 167.220982 
L 776.658169 167.220982 
z
" clip-path="url(#p8e85c872e3)" style="fill: #ffa500"/>
   </g>
   <g id="patch_231">
    <path d="M 813.16382 529.478125 
L 837.500921 529.478125 
L 837.500921 408.725744 
L 813.16382 408.725744 
z
" clip-path="url(#p8e85c872e3)" style="fill: #0000ff"/>
   </g>
   <g id="patch_232">
    <path d="M 813.16382 529.478125 
L 837.500921 529.478125 
L 837.500921 529.478125 
L 813.16382 529.478125 
z
" clip-path="url(#p8e85c872e3)" style="fill: #008000"/>
   </g>
   <g id="patch_233">
    <path d="M 813.16382 529.478125 
L 837.500921 529.478125 
L 837.500921 529.478125 
L 813.16382 529.478125 
z
" clip-path="url(#p8e85c872e3)" style="fill: #ffa500"/>
   </g>
   <g id="patch_234">
    <path d="M 813.16382 408.725744 
L 837.500921 408.725744 
L 837.500921 287.973363 
L 813.16382 287.973363 
z
" clip-path="url(#p8e85c872e3)" style="fill: #0000ff"/>
   </g>
   <g id="patch_235">
    <path d="M 813.16382 408.725744 
L 837.500921 408.725744 
L 837.500921 408.725744 
L 813.16382 408.725744 
z
" clip-path="url(#p8e85c872e3)" style="fill: #008000"/>
   </g>
   <g id="patch_236">
    <path d="M 813.16382 408.725744 
L 837.500921 408.725744 
L 837.500921 408.725744 
L 813.16382 408.725744 
z
" clip-path="url(#p8e85c872e3)" style="fill: #ffa500"/>
   </g>
   <g id="patch_237">
    <path d="M 813.16382 287.973363 
L 837.500921 287.973363 
L 837.500921 227.597173 
L 813.16382 227.597173 
z
" clip-path="url(#p8e85c872e3)" style="fill: #0000ff"/>
   </g>
   <g id="patch_238">
    <path d="M 813.16382 287.973363 
L 837.500921 287.973363 
L 837.500921 257.785268 
L 813.16382 257.785268 
z
" clip-path="url(#p8e85c872e3)" style="fill: #008000"/>
   </g>
   <g id="patch_239">
    <path d="M 813.16382 287.973363 
L 837.500921 287.973363 
L 837.500921 257.785268 
L 813.16382 257.785268 
z
" clip-path="url(#p8e85c872e3)" style="fill: #ffa500"/>
   </g>
   <g id="patch_240">
    <path d="M 813.16382 167.220982 
L 837.500921 167.220982 
L 837.500921 46.468601 
L 813.16382 46.468601 
z
" clip-path="url(#p8e85c872e3)" style="fill: #0000ff"/>
   </g>
   <g id="patch_241">
    <path d="M 813.16382 167.220982 
L 837.500921 167.220982 
L 837.500921 167.220982 
L 813.16382 167.220982 
z
" clip-path="url(#p8e85c872e3)" style="fill: #008000"/>
   </g>
   <g id="patch_242">
    <path d="M 813.16382 167.220982 
L 837.500921 167.220982 
L 837.500921 167.220982 
L 813.16382 167.220982 
z
" clip-path="url(#p8e85c872e3)" style="fill: #ffa500"/>
   </g>
   <g id="patch_243">
    <path d="M 849.669471 529.478125 
L 874.006572 529.478125 
L 874.006572 408.725744 
L 849.669471 408.725744 
z
" clip-path="url(#p8e85c872e3)" style="fill: #0000ff"/>
   </g>
   <g id="patch_244">
    <path d="M 849.669471 529.478125 
L 874.006572 529.478125 
L 874.006572 529.478125 
L 849.669471 529.478125 
z
" clip-path="url(#p8e85c872e3)" style="fill: #008000"/>
   </g>
   <g id="patch_245">
    <path d="M 849.669471 529.478125 
L 874.006572 529.478125 
L 874.006572 529.478125 
L 849.669471 529.478125 
z
" clip-path="url(#p8e85c872e3)" style="fill: #ffa500"/>
   </g>
   <g id="patch_246">
    <path d="M 849.669471 408.725744 
L 874.006572 408.725744 
L 874.006572 287.973363 
L 849.669471 287.973363 
z
" clip-path="url(#p8e85c872e3)" style="fill: #0000ff"/>
   </g>
   <g id="patch_247">
    <path d="M 849.669471 408.725744 
L 874.006572 408.725744 
L 874.006572 408.725744 
L 849.669471 408.725744 
z
" clip-path="url(#p8e85c872e3)" style="fill: #008000"/>
   </g>
   <g id="patch_248">
    <path d="M 849.669471 408.725744 
L 874.006572 408.725744 
L 874.006572 408.725744 
L 849.669471 408.725744 
z
" clip-path="url(#p8e85c872e3)" style="fill: #ffa500"/>
   </g>
   <g id="patch_249">
    <path d="M 849.669471 287.973363 
L 874.006572 287.973363 
L 874.006572 227.597173 
L 849.669471 227.597173 
z
" clip-path="url(#p8e85c872e3)" style="fill: #0000ff"/>
   </g>
   <g id="patch_250">
    <path d="M 849.669471 287.973363 
L 874.006572 287.973363 
L 874.006572 257.785268 
L 849.669471 257.785268 
z
" clip-path="url(#p8e85c872e3)" style="fill: #008000"/>
   </g>
   <g id="patch_251">
    <path d="M 849.669471 287.973363 
L 874.006572 287.973363 
L 874.006572 257.785268 
L 849.669471 257.785268 
z
" clip-path="url(#p8e85c872e3)" style="fill: #ffa500"/>
   </g>
   <g id="patch_252">
    <path d="M 849.669471 167.220982 
L 874.006572 167.220982 
L 874.006572 46.468601 
L 849.669471 46.468601 
z
" clip-path="url(#p8e85c872e3)" style="fill: #0000ff"/>
   </g>
   <g id="patch_253">
    <path d="M 849.669471 167.220982 
L 874.006572 167.220982 
L 874.006572 167.220982 
L 849.669471 167.220982 
z
" clip-path="url(#p8e85c872e3)" style="fill: #008000"/>
   </g>
   <g id="patch_254">
    <path d="M 849.669471 167.220982 
L 874.006572 167.220982 
L 874.006572 167.220982 
L 849.669471 167.220982 
z
" clip-path="url(#p8e85c872e3)" style="fill: #ffa500"/>
   </g>
   <g id="patch_255">
    <path d="M 886.175122 529.478125 
L 910.512223 529.478125 
L 910.512223 408.725744 
L 886.175122 408.725744 
z
" clip-path="url(#p8e85c872e3)" style="fill: #0000ff"/>
   </g>
   <g id="patch_256">
    <path d="M 886.175122 529.478125 
L 910.512223 529.478125 
L 910.512223 529.478125 
L 886.175122 529.478125 
z
" clip-path="url(#p8e85c872e3)" style="fill: #008000"/>
   </g>
   <g id="patch_257">
    <path d="M 886.175122 529.478125 
L 910.512223 529.478125 
L 910.512223 529.478125 
L 886.175122 529.478125 
z
" clip-path="url(#p8e85c872e3)" style="fill: #ffa500"/>
   </g>
   <g id="patch_258">
    <path d="M 886.175122 408.725744 
L 910.512223 408.725744 
L 910.512223 287.973363 
L 886.175122 287.973363 
z
" clip-path="url(#p8e85c872e3)" style="fill: #0000ff"/>
   </g>
   <g id="patch_259">
    <path d="M 886.175122 408.725744 
L 910.512223 408.725744 
L 910.512223 408.725744 
L 886.175122 408.725744 
z
" clip-path="url(#p8e85c872e3)" style="fill: #008000"/>
   </g>
   <g id="patch_260">
    <path d="M 886.175122 408.725744 
L 910.512223 408.725744 
L 910.512223 408.725744 
L 886.175122 408.725744 
z
" clip-path="url(#p8e85c872e3)" style="fill: #ffa500"/>
   </g>
   <g id="patch_261">
    <path d="M 886.175122 287.973363 
L 910.512223 287.973363 
L 910.512223 227.597173 
L 886.175122 227.597173 
z
" clip-path="url(#p8e85c872e3)" style="fill: #0000ff"/>
   </g>
   <g id="patch_262">
    <path d="M 886.175122 287.973363 
L 910.512223 287.973363 
L 910.512223 257.785268 
L 886.175122 257.785268 
z
" clip-path="url(#p8e85c872e3)" style="fill: #008000"/>
   </g>
   <g id="patch_263">
    <path d="M 886.175122 287.973363 
L 910.512223 287.973363 
L 910.512223 257.785268 
L 886.175122 257.785268 
z
" clip-path="url(#p8e85c872e3)" style="fill: #ffa500"/>
   </g>
   <g id="patch_264">
    <path d="M 886.175122 167.220982 
L 910.512223 167.220982 
L 910.512223 46.468601 
L 886.175122 46.468601 
z
" clip-path="url(#p8e85c872e3)" style="fill: #0000ff"/>
   </g>
   <g id="patch_265">
    <path d="M 886.175122 167.220982 
L 910.512223 167.220982 
L 910.512223 167.220982 
L 886.175122 167.220982 
z
" clip-path="url(#p8e85c872e3)" style="fill: #008000"/>
   </g>
   <g id="patch_266">
    <path d="M 886.175122 167.220982 
L 910.512223 167.220982 
L 910.512223 167.220982 
L 886.175122 167.220982 
z
" clip-path="url(#p8e85c872e3)" style="fill: #ffa500"/>
   </g>
   <g id="patch_267">
    <path d="M 922.680773 529.478125 
L 947.017874 529.478125 
L 947.017874 408.725744 
L 922.680773 408.725744 
z
" clip-path="url(#p8e85c872e3)" style="fill: #0000ff"/>
   </g>
   <g id="patch_268">
    <path d="M 922.680773 529.478125 
L 947.017874 529.478125 
L 947.017874 529.478125 
L 922.680773 529.478125 
z
" clip-path="url(#p8e85c872e3)" style="fill: #008000"/>
   </g>
   <g id="patch_269">
    <path d="M 922.680773 529.478125 
L 947.017874 529.478125 
L 947.017874 529.478125 
L 922.680773 529.478125 
z
" clip-path="url(#p8e85c872e3)" style="fill: #ffa500"/>
   </g>
   <g id="patch_270">
    <path d="M 922.680773 408.725744 
L 947.017874 408.725744 
L 947.017874 287.973363 
L 922.680773 287.973363 
z
" clip-path="url(#p8e85c872e3)" style="fill: #0000ff"/>
   </g>
   <g id="patch_271">
    <path d="M 922.680773 408.725744 
L 947.017874 408.725744 
L 947.017874 408.725744 
L 922.680773 408.725744 
z
" clip-path="url(#p8e85c872e3)" style="fill: #008000"/>
   </g>
   <g id="patch_272">
    <path d="M 922.680773 408.725744 
L 947.017874 408.725744 
L 947.017874 408.725744 
L 922.680773 408.725744 
z
" clip-path="url(#p8e85c872e3)" style="fill: #ffa500"/>
   </g>
   <g id="patch_273">
    <path d="M 922.680773 287.973363 
L 947.017874 287.973363 
L 947.017874 227.597173 
L 922.680773 227.597173 
z
" clip-path="url(#p8e85c872e3)" style="fill: #0000ff"/>
   </g>
   <g id="patch_274">
    <path d="M 922.680773 287.973363 
L 947.017874 287.973363 
L 947.017874 257.785268 
L 922.680773 257.785268 
z
" clip-path="url(#p8e85c872e3)" style="fill: #008000"/>
   </g>
   <g id="patch_275">
    <path d="M 922.680773 287.973363 
L 947.017874 287.973363 
L 947.017874 257.785268 
L 922.680773 257.785268 
z
" clip-path="url(#p8e85c872e3)" style="fill: #ffa500"/>
   </g>
   <g id="patch_276">
    <path d="M 922.680773 167.220982 
L 947.017874 167.220982 
L 947.017874 46.468601 
L 922.680773 46.468601 
z
" clip-path="url(#p8e85c872e3)" style="fill: #0000ff"/>
   </g>
   <g id="patch_277">
    <path d="M 922.680773 167.220982 
L 947.017874 167.220982 
L 947.017874 167.220982 
L 922.680773 167.220982 
z
" clip-path="url(#p8e85c872e3)" style="fill: #008000"/>
   </g>
   <g id="patch_278">
    <path d="M 922.680773 167.220982 
L 947.017874 167.220982 
L 947.017874 167.220982 
L 922.680773 167.220982 
z
" clip-path="url(#p8e85c872e3)" style="fill: #ffa500"/>
   </g>
   <g id="patch_279">
    <path d="M 959.186424 529.478125 
L 983.523525 529.478125 
L 983.523525 408.725744 
L 959.186424 408.725744 
z
" clip-path="url(#p8e85c872e3)" style="fill: #0000ff"/>
   </g>
   <g id="patch_280">
    <path d="M 959.186424 529.478125 
L 983.523525 529.478125 
L 983.523525 529.478125 
L 959.186424 529.478125 
z
" clip-path="url(#p8e85c872e3)" style="fill: #008000"/>
   </g>
   <g id="patch_281">
    <path d="M 959.186424 529.478125 
L 983.523525 529.478125 
L 983.523525 529.478125 
L 959.186424 529.478125 
z
" clip-path="url(#p8e85c872e3)" style="fill: #ffa500"/>
   </g>
   <g id="patch_282">
    <path d="M 959.186424 408.725744 
L 983.523525 408.725744 
L 983.523525 287.973363 
L 959.186424 287.973363 
z
" clip-path="url(#p8e85c872e3)" style="fill: #0000ff"/>
   </g>
   <g id="patch_283">
    <path d="M 959.186424 408.725744 
L 983.523525 408.725744 
L 983.523525 408.725744 
L 959.186424 408.725744 
z
" clip-path="url(#p8e85c872e3)" style="fill: #008000"/>
   </g>
   <g id="patch_284">
    <path d="M 959.186424 408.725744 
L 983.523525 408.725744 
L 983.523525 408.725744 
L 959.186424 408.725744 
z
" clip-path="url(#p8e85c872e3)" style="fill: #ffa500"/>
   </g>
   <g id="patch_285">
    <path d="M 959.186424 287.973363 
L 983.523525 287.973363 
L 983.523525 227.597173 
L 959.186424 227.597173 
z
" clip-path="url(#p8e85c872e3)" style="fill: #0000ff"/>
   </g>
   <g id="patch_286">
    <path d="M 959.186424 287.973363 
L 983.523525 287.973363 
L 983.523525 257.785268 
L 959.186424 257.785268 
z
" clip-path="url(#p8e85c872e3)" style="fill: #008000"/>
   </g>
   <g id="patch_287">
    <path d="M 959.186424 287.973363 
L 983.523525 287.973363 
L 983.523525 257.785268 
L 959.186424 257.785268 
z
" clip-path="url(#p8e85c872e3)" style="fill: #ffa500"/>
   </g>
   <g id="patch_288">
    <path d="M 959.186424 167.220982 
L 983.523525 167.220982 
L 983.523525 46.468601 
L 959.186424 46.468601 
z
" clip-path="url(#p8e85c872e3)" style="fill: #0000ff"/>
   </g>
   <g id="patch_289">
    <path d="M 959.186424 167.220982 
L 983.523525 167.220982 
L 983.523525 167.220982 
L 959.186424 167.220982 
z
" clip-path="url(#p8e85c872e3)" style="fill: #008000"/>
   </g>
   <g id="patch_290">
    <path d="M 959.186424 167.220982 
L 983.523525 167.220982 
L 983.523525 167.220982 
L 959.186424 167.220982 
z
" clip-path="url(#p8e85c872e3)" style="fill: #ffa500"/>
   </g>
   <g id="patch_291">
    <path d="M 995.692075 529.478125 
L 1020.029176 529.478125 
L 1020.029176 408.725744 
L 995.692075 408.725744 
z
" clip-path="url(#p8e85c872e3)" style="fill: #0000ff"/>
   </g>
   <g id="patch_292">
    <path d="M 995.692075 529.478125 
L 1020.029176 529.478125 
L 1020.029176 529.478125 
L 995.692075 529.478125 
z
" clip-path="url(#p8e85c872e3)" style="fill: #008000"/>
   </g>
   <g id="patch_293">
    <path d="M 995.692075 529.478125 
L 1020.029176 529.478125 
L 1020.029176 529.478125 
L 995.692075 529.478125 
z
" clip-path="url(#p8e85c872e3)" style="fill: #ffa500"/>
   </g>
   <g id="patch_294">
    <path d="M 995.692075 408.725744 
L 1020.029176 408.725744 
L 1020.029176 287.973363 
L 995.692075 287.973363 
z
" clip-path="url(#p8e85c872e3)" style="fill: #0000ff"/>
   </g>
   <g id="patch_295">
    <path d="M 995.692075 408.725744 
L 1020.029176 408.725744 
L 1020.029176 408.725744 
L 995.692075 408.725744 
z
" clip-path="url(#p8e85c872e3)" style="fill: #008000"/>
   </g>
   <g id="patch_296">
    <path d="M 995.692075 408.725744 
L 1020.029176 408.725744 
L 1020.029176 408.725744 
L 995.692075 408.725744 
z
" clip-path="url(#p8e85c872e3)" style="fill: #ffa500"/>
   </g>
   <g id="patch_297">
    <path d="M 995.692075 287.973363 
L 1020.029176 287.973363 
L 1020.029176 227.597173 
L 995.692075 227.597173 
z
" clip-path="url(#p8e85c872e3)" style="fill: #0000ff"/>
   </g>
   <g id="patch_298">
    <path d="M 995.692075 287.973363 
L 1020.029176 287.973363 
L 1020.029176 257.785268 
L 995.692075 257.785268 
z
" clip-path="url(#p8e85c872e3)" style="fill: #008000"/>
   </g>
   <g id="patch_299">
    <path d="M 995.692075 287.973363 
L 1020.029176 287.973363 
L 1020.029176 257.785268 
L 995.692075 257.785268 
z
" clip-path="url(#p8e85c872e3)" style="fill: #ffa500"/>
   </g>
   <g id="patch_300">
    <path d="M 995.692075 167.220982 
L 1020.029176 167.220982 
L 1020.029176 46.468601 
L 995.692075 46.468601 
z
" clip-path="url(#p8e85c872e3)" style="fill: #0000ff"/>
   </g>
   <g id="patch_301">
    <path d="M 995.692075 167.220982 
L 1020.029176 167.220982 
L 1020.029176 167.220982 
L 995.692075 167.220982 
z
" clip-path="url(#p8e85c872e3)" style="fill: #008000"/>
   </g>
   <g id="patch_302">
    <path d="M 995.692075 167.220982 
L 1020.029176 167.220982 
L 1020.029176 167.220982 
L 995.692075 167.220982 
z
" clip-path="url(#p8e85c872e3)" style="fill: #ffa500"/>
   </g>
   <g id="matplotlib.axis_1">
    <g id="xtick_1">
     <g id="line2d_1">
      <defs>
       <path id="mc66c36642a" d="M 0 0 
L 0 3.5 
" style="stroke: #000000; stroke-width: 0.8"/>
      </defs>
      <g>
       <use xlink:href="#mc66c36642a" x="131.724999" y="529.478125" style="stroke: #000000; stroke-width: 0.8"/>
      </g>
     </g>
     <g id="text_1">
      <!-- 0 -->
      <g transform="translate(128.543749 544.076562) scale(0.1 -0.1)">
       <defs>
        <path id="DejaVuSans-30" d="M 2034 4250 
Q 1547 4250 1301 3770 
Q 1056 3291 1056 2328 
Q 1056 1369 1301 889 
Q 1547 409 2034 409 
Q 2525 409 2770 889 
Q 3016 1369 3016 2328 
Q 3016 3291 2770 3770 
Q 2525 4250 2034 4250 
z
M 2034 4750 
Q 2819 4750 3233 4129 
Q 3647 3509 3647 2328 
Q 3647 1150 3233 529 
Q 2819 -91 2034 -91 
Q 1250 -91 836 529 
Q 422 1150 422 2328 
Q 422 3509 836 4129 
Q 1250 4750 2034 4750 
z
" transform="scale(0.015625)"/>
       </defs>
       <use xlink:href="#DejaVuSans-30"/>
      </g>
     </g>
    </g>
    <g id="xtick_2">
     <g id="line2d_2">
      <g>
       <use xlink:href="#mc66c36642a" x="253.410503" y="529.478125" style="stroke: #000000; stroke-width: 0.8"/>
      </g>
     </g>
     <g id="text_2">
      <!-- 100 -->
      <g transform="translate(243.866753 544.076562) scale(0.1 -0.1)">
       <defs>
        <path id="DejaVuSans-31" d="M 794 531 
L 1825 531 
L 1825 4091 
L 703 3866 
L 703 4441 
L 1819 4666 
L 2450 4666 
L 2450 531 
L 3481 531 
L 3481 0 
L 794 0 
L 794 531 
z
" transform="scale(0.015625)"/>
       </defs>
       <use xlink:href="#DejaVuSans-31"/>
       <use xlink:href="#DejaVuSans-30" x="63.623047"/>
       <use xlink:href="#DejaVuSans-30" x="127.246094"/>
      </g>
     </g>
    </g>
    <g id="xtick_3">
     <g id="line2d_3">
      <g>
       <use xlink:href="#mc66c36642a" x="375.096007" y="529.478125" style="stroke: #000000; stroke-width: 0.8"/>
      </g>
     </g>
     <g id="text_3">
      <!-- 200 -->
      <g transform="translate(365.552257 544.076562) scale(0.1 -0.1)">
       <defs>
        <path id="DejaVuSans-32" d="M 1228 531 
L 3431 531 
L 3431 0 
L 469 0 
L 469 531 
Q 828 903 1448 1529 
Q 2069 2156 2228 2338 
Q 2531 2678 2651 2914 
Q 2772 3150 2772 3378 
Q 2772 3750 2511 3984 
Q 2250 4219 1831 4219 
Q 1534 4219 1204 4116 
Q 875 4013 500 3803 
L 500 4441 
Q 881 4594 1212 4672 
Q 1544 4750 1819 4750 
Q 2544 4750 2975 4387 
Q 3406 4025 3406 3419 
Q 3406 3131 3298 2873 
Q 3191 2616 2906 2266 
Q 2828 2175 2409 1742 
Q 1991 1309 1228 531 
z
" transform="scale(0.015625)"/>
       </defs>
       <use xlink:href="#DejaVuSans-32"/>
       <use xlink:href="#DejaVuSans-30" x="63.623047"/>
       <use xlink:href="#DejaVuSans-30" x="127.246094"/>
      </g>
     </g>
    </g>
    <g id="xtick_4">
     <g id="line2d_4">
      <g>
       <use xlink:href="#mc66c36642a" x="496.78151" y="529.478125" style="stroke: #000000; stroke-width: 0.8"/>
      </g>
     </g>
     <g id="text_4">
      <!-- 300 -->
      <g transform="translate(487.23776 544.076562) scale(0.1 -0.1)">
       <defs>
        <path id="DejaVuSans-33" d="M 2597 2516 
Q 3050 2419 3304 2112 
Q 3559 1806 3559 1356 
Q 3559 666 3084 287 
Q 2609 -91 1734 -91 
Q 1441 -91 1130 -33 
Q 819 25 488 141 
L 488 750 
Q 750 597 1062 519 
Q 1375 441 1716 441 
Q 2309 441 2620 675 
Q 2931 909 2931 1356 
Q 2931 1769 2642 2001 
Q 2353 2234 1838 2234 
L 1294 2234 
L 1294 2753 
L 1863 2753 
Q 2328 2753 2575 2939 
Q 2822 3125 2822 3475 
Q 2822 3834 2567 4026 
Q 2313 4219 1838 4219 
Q 1578 4219 1281 4162 
Q 984 4106 628 3988 
L 628 4550 
Q 988 4650 1302 4700 
Q 1616 4750 1894 4750 
Q 2613 4750 3031 4423 
Q 3450 4097 3450 3541 
Q 3450 3153 3228 2886 
Q 3006 2619 2597 2516 
z
" transform="scale(0.015625)"/>
       </defs>
       <use xlink:href="#DejaVuSans-33"/>
       <use xlink:href="#DejaVuSans-30" x="63.623047"/>
       <use xlink:href="#DejaVuSans-30" x="127.246094"/>
      </g>
     </g>
    </g>
    <g id="xtick_5">
     <g id="line2d_5">
      <g>
       <use xlink:href="#mc66c36642a" x="618.467014" y="529.478125" style="stroke: #000000; stroke-width: 0.8"/>
      </g>
     </g>
     <g id="text_5">
      <!-- 400 -->
      <g transform="translate(608.923264 544.076562) scale(0.1 -0.1)">
       <defs>
        <path id="DejaVuSans-34" d="M 2419 4116 
L 825 1625 
L 2419 1625 
L 2419 4116 
z
M 2253 4666 
L 3047 4666 
L 3047 1625 
L 3713 1625 
L 3713 1100 
L 3047 1100 
L 3047 0 
L 2419 0 
L 2419 1100 
L 313 1100 
L 313 1709 
L 2253 4666 
z
" transform="scale(0.015625)"/>
       </defs>
       <use xlink:href="#DejaVuSans-34"/>
       <use xlink:href="#DejaVuSans-30" x="63.623047"/>
       <use xlink:href="#DejaVuSans-30" x="127.246094"/>
      </g>
     </g>
    </g>
    <g id="xtick_6">
     <g id="line2d_6">
      <g>
       <use xlink:href="#mc66c36642a" x="740.152518" y="529.478125" style="stroke: #000000; stroke-width: 0.8"/>
      </g>
     </g>
     <g id="text_6">
      <!-- 500 -->
      <g transform="translate(730.608768 544.076562) scale(0.1 -0.1)">
       <defs>
        <path id="DejaVuSans-35" d="M 691 4666 
L 3169 4666 
L 3169 4134 
L 1269 4134 
L 1269 2991 
Q 1406 3038 1543 3061 
Q 1681 3084 1819 3084 
Q 2600 3084 3056 2656 
Q 3513 2228 3513 1497 
Q 3513 744 3044 326 
Q 2575 -91 1722 -91 
Q 1428 -91 1123 -41 
Q 819 9 494 109 
L 494 744 
Q 775 591 1075 516 
Q 1375 441 1709 441 
Q 2250 441 2565 725 
Q 2881 1009 2881 1497 
Q 2881 1984 2565 2268 
Q 2250 2553 1709 2553 
Q 1456 2553 1204 2497 
Q 953 2441 691 2322 
L 691 4666 
z
" transform="scale(0.015625)"/>
       </defs>
       <use xlink:href="#DejaVuSans-35"/>
       <use xlink:href="#DejaVuSans-30" x="63.623047"/>
       <use xlink:href="#DejaVuSans-30" x="127.246094"/>
      </g>
     </g>
    </g>
    <g id="xtick_7">
     <g id="line2d_7">
      <g>
       <use xlink:href="#mc66c36642a" x="861.838021" y="529.478125" style="stroke: #000000; stroke-width: 0.8"/>
      </g>
     </g>
     <g id="text_7">
      <!-- 600 -->
      <g transform="translate(852.294271 544.076562) scale(0.1 -0.1)">
       <defs>
        <path id="DejaVuSans-36" d="M 2113 2584 
Q 1688 2584 1439 2293 
Q 1191 2003 1191 1497 
Q 1191 994 1439 701 
Q 1688 409 2113 409 
Q 2538 409 2786 701 
Q 3034 994 3034 1497 
Q 3034 2003 2786 2293 
Q 2538 2584 2113 2584 
z
M 3366 4563 
L 3366 3988 
Q 3128 4100 2886 4159 
Q 2644 4219 2406 4219 
Q 1781 4219 1451 3797 
Q 1122 3375 1075 2522 
Q 1259 2794 1537 2939 
Q 1816 3084 2150 3084 
Q 2853 3084 3261 2657 
Q 3669 2231 3669 1497 
Q 3669 778 3244 343 
Q 2819 -91 2113 -91 
Q 1303 -91 875 529 
Q 447 1150 447 2328 
Q 447 3434 972 4092 
Q 1497 4750 2381 4750 
Q 2619 4750 2861 4703 
Q 3103 4656 3366 4563 
z
" transform="scale(0.015625)"/>
       </defs>
       <use xlink:href="#DejaVuSans-36"/>
       <use xlink:href="#DejaVuSans-30" x="63.623047"/>
       <use xlink:href="#DejaVuSans-30" x="127.246094"/>
      </g>
     </g>
    </g>
    <g id="xtick_8">
     <g id="line2d_8">
      <g>
       <use xlink:href="#mc66c36642a" x="983.523525" y="529.478125" style="stroke: #000000; stroke-width: 0.8"/>
      </g>
     </g>
     <g id="text_8">
      <!-- 700 -->
      <g transform="translate(973.979775 544.076562) scale(0.1 -0.1)">
       <defs>
        <path id="DejaVuSans-37" d="M 525 4666 
L 3525 4666 
L 3525 4397 
L 1831 0 
L 1172 0 
L 2766 4134 
L 525 4134 
L 525 4666 
z
" transform="scale(0.015625)"/>
       </defs>
       <use xlink:href="#DejaVuSans-37"/>
       <use xlink:href="#DejaVuSans-30" x="63.623047"/>
       <use xlink:href="#DejaVuSans-30" x="127.246094"/>
      </g>
     </g>
    </g>
    <g id="text_9">
     <!-- Days -->
     <g transform="translate(557.314688 557.754687) scale(0.1 -0.1)">
      <defs>
       <path id="DejaVuSans-44" d="M 1259 4147 
L 1259 519 
L 2022 519 
Q 2988 519 3436 956 
Q 3884 1394 3884 2338 
Q 3884 3275 3436 3711 
Q 2988 4147 2022 4147 
L 1259 4147 
z
M 628 4666 
L 1925 4666 
Q 3281 4666 3915 4102 
Q 4550 3538 4550 2338 
Q 4550 1131 3912 565 
Q 3275 0 1925 0 
L 628 0 
L 628 4666 
z
" transform="scale(0.015625)"/>
       <path id="DejaVuSans-61" d="M 2194 1759 
Q 1497 1759 1228 1600 
Q 959 1441 959 1056 
Q 959 750 1161 570 
Q 1363 391 1709 391 
Q 2188 391 2477 730 
Q 2766 1069 2766 1631 
L 2766 1759 
L 2194 1759 
z
M 3341 1997 
L 3341 0 
L 2766 0 
L 2766 531 
Q 2569 213 2275 61 
Q 1981 -91 1556 -91 
Q 1019 -91 701 211 
Q 384 513 384 1019 
Q 384 1609 779 1909 
Q 1175 2209 1959 2209 
L 2766 2209 
L 2766 2266 
Q 2766 2663 2505 2880 
Q 2244 3097 1772 3097 
Q 1472 3097 1187 3025 
Q 903 2953 641 2809 
L 641 3341 
Q 956 3463 1253 3523 
Q 1550 3584 1831 3584 
Q 2591 3584 2966 3190 
Q 3341 2797 3341 1997 
z
" transform="scale(0.015625)"/>
       <path id="DejaVuSans-79" d="M 2059 -325 
Q 1816 -950 1584 -1140 
Q 1353 -1331 966 -1331 
L 506 -1331 
L 506 -850 
L 844 -850 
Q 1081 -850 1212 -737 
Q 1344 -625 1503 -206 
L 1606 56 
L 191 3500 
L 800 3500 
L 1894 763 
L 2988 3500 
L 3597 3500 
L 2059 -325 
z
" transform="scale(0.015625)"/>
       <path id="DejaVuSans-73" d="M 2834 3397 
L 2834 2853 
Q 2591 2978 2328 3040 
Q 2066 3103 1784 3103 
Q 1356 3103 1142 2972 
Q 928 2841 928 2578 
Q 928 2378 1081 2264 
Q 1234 2150 1697 2047 
L 1894 2003 
Q 2506 1872 2764 1633 
Q 3022 1394 3022 966 
Q 3022 478 2636 193 
Q 2250 -91 1575 -91 
Q 1294 -91 989 -36 
Q 684 19 347 128 
L 347 722 
Q 666 556 975 473 
Q 1284 391 1588 391 
Q 1994 391 2212 530 
Q 2431 669 2431 922 
Q 2431 1156 2273 1281 
Q 2116 1406 1581 1522 
L 1381 1569 
Q 847 1681 609 1914 
Q 372 2147 372 2553 
Q 372 3047 722 3315 
Q 1072 3584 1716 3584 
Q 2034 3584 2315 3537 
Q 2597 3491 2834 3397 
z
" transform="scale(0.015625)"/>
      </defs>
      <use xlink:href="#DejaVuSans-44"/>
      <use xlink:href="#DejaVuSans-61" x="77.001953"/>
      <use xlink:href="#DejaVuSans-79" x="138.28125"/>
      <use xlink:href="#DejaVuSans-73" x="197.460938"/>
     </g>
    </g>
   </g>
   <g id="matplotlib.axis_2">
    <g id="ytick_1">
     <g id="line2d_9">
      <defs>
       <path id="m62af744281" d="M 0 0 
L -3.5 0 
" style="stroke: #000000; stroke-width: 0.8"/>
      </defs>
      <g>
       <use xlink:href="#m62af744281" x="74.532813" y="529.478125" style="stroke: #000000; stroke-width: 0.8"/>
      </g>
     </g>
     <g id="text_10">
      <!-- Startup 1 -->
      <g transform="translate(20.878125 533.277344) scale(0.1 -0.1)">
       <defs>
        <path id="DejaVuSans-53" d="M 3425 4513 
L 3425 3897 
Q 3066 4069 2747 4153 
Q 2428 4238 2131 4238 
Q 1616 4238 1336 4038 
Q 1056 3838 1056 3469 
Q 1056 3159 1242 3001 
Q 1428 2844 1947 2747 
L 2328 2669 
Q 3034 2534 3370 2195 
Q 3706 1856 3706 1288 
Q 3706 609 3251 259 
Q 2797 -91 1919 -91 
Q 1588 -91 1214 -16 
Q 841 59 441 206 
L 441 856 
Q 825 641 1194 531 
Q 1563 422 1919 422 
Q 2459 422 2753 634 
Q 3047 847 3047 1241 
Q 3047 1584 2836 1778 
Q 2625 1972 2144 2069 
L 1759 2144 
Q 1053 2284 737 2584 
Q 422 2884 422 3419 
Q 422 4038 858 4394 
Q 1294 4750 2059 4750 
Q 2388 4750 2728 4690 
Q 3069 4631 3425 4513 
z
" transform="scale(0.015625)"/>
        <path id="DejaVuSans-74" d="M 1172 4494 
L 1172 3500 
L 2356 3500 
L 2356 3053 
L 1172 3053 
L 1172 1153 
Q 1172 725 1289 603 
Q 1406 481 1766 481 
L 2356 481 
L 2356 0 
L 1766 0 
Q 1100 0 847 248 
Q 594 497 594 1153 
L 594 3053 
L 172 3053 
L 172 3500 
L 594 3500 
L 594 4494 
L 1172 4494 
z
" transform="scale(0.015625)"/>
        <path id="DejaVuSans-72" d="M 2631 2963 
Q 2534 3019 2420 3045 
Q 2306 3072 2169 3072 
Q 1681 3072 1420 2755 
Q 1159 2438 1159 1844 
L 1159 0 
L 581 0 
L 581 3500 
L 1159 3500 
L 1159 2956 
Q 1341 3275 1631 3429 
Q 1922 3584 2338 3584 
Q 2397 3584 2469 3576 
Q 2541 3569 2628 3553 
L 2631 2963 
z
" transform="scale(0.015625)"/>
        <path id="DejaVuSans-75" d="M 544 1381 
L 544 3500 
L 1119 3500 
L 1119 1403 
Q 1119 906 1312 657 
Q 1506 409 1894 409 
Q 2359 409 2629 706 
Q 2900 1003 2900 1516 
L 2900 3500 
L 3475 3500 
L 3475 0 
L 2900 0 
L 2900 538 
Q 2691 219 2414 64 
Q 2138 -91 1772 -91 
Q 1169 -91 856 284 
Q 544 659 544 1381 
z
M 1991 3584 
L 1991 3584 
z
" transform="scale(0.015625)"/>
        <path id="DejaVuSans-70" d="M 1159 525 
L 1159 -1331 
L 581 -1331 
L 581 3500 
L 1159 3500 
L 1159 2969 
Q 1341 3281 1617 3432 
Q 1894 3584 2278 3584 
Q 2916 3584 3314 3078 
Q 3713 2572 3713 1747 
Q 3713 922 3314 415 
Q 2916 -91 2278 -91 
Q 1894 -91 1617 61 
Q 1341 213 1159 525 
z
M 3116 1747 
Q 3116 2381 2855 2742 
Q 2594 3103 2138 3103 
Q 1681 3103 1420 2742 
Q 1159 2381 1159 1747 
Q 1159 1113 1420 752 
Q 1681 391 2138 391 
Q 2594 391 2855 752 
Q 3116 1113 3116 1747 
z
" transform="scale(0.015625)"/>
        <path id="DejaVuSans-20" transform="scale(0.015625)"/>
       </defs>
       <use xlink:href="#DejaVuSans-53"/>
       <use xlink:href="#DejaVuSans-74" x="63.476562"/>
       <use xlink:href="#DejaVuSans-61" x="102.685547"/>
       <use xlink:href="#DejaVuSans-72" x="163.964844"/>
       <use xlink:href="#DejaVuSans-74" x="205.078125"/>
       <use xlink:href="#DejaVuSans-75" x="244.287109"/>
       <use xlink:href="#DejaVuSans-70" x="307.666016"/>
       <use xlink:href="#DejaVuSans-20" x="371.142578"/>
       <use xlink:href="#DejaVuSans-31" x="402.929688"/>
      </g>
     </g>
    </g>
    <g id="ytick_2">
     <g id="line2d_10">
      <g>
       <use xlink:href="#m62af744281" x="74.532813" y="408.725744" style="stroke: #000000; stroke-width: 0.8"/>
      </g>
     </g>
     <g id="text_11">
      <!-- Startup 2 -->
      <g transform="translate(20.878125 412.524963) scale(0.1 -0.1)">
       <use xlink:href="#DejaVuSans-53"/>
       <use xlink:href="#DejaVuSans-74" x="63.476562"/>
       <use xlink:href="#DejaVuSans-61" x="102.685547"/>
       <use xlink:href="#DejaVuSans-72" x="163.964844"/>
       <use xlink:href="#DejaVuSans-74" x="205.078125"/>
       <use xlink:href="#DejaVuSans-75" x="244.287109"/>
       <use xlink:href="#DejaVuSans-70" x="307.666016"/>
       <use xlink:href="#DejaVuSans-20" x="371.142578"/>
       <use xlink:href="#DejaVuSans-32" x="402.929688"/>
      </g>
     </g>
    </g>
    <g id="ytick_3">
     <g id="line2d_11">
      <g>
       <use xlink:href="#m62af744281" x="74.532813" y="287.973363" style="stroke: #000000; stroke-width: 0.8"/>
      </g>
     </g>
     <g id="text_12">
      <!-- Startup 3 -->
      <g transform="translate(20.878125 291.772582) scale(0.1 -0.1)">
       <use xlink:href="#DejaVuSans-53"/>
       <use xlink:href="#DejaVuSans-74" x="63.476562"/>
       <use xlink:href="#DejaVuSans-61" x="102.685547"/>
       <use xlink:href="#DejaVuSans-72" x="163.964844"/>
       <use xlink:href="#DejaVuSans-74" x="205.078125"/>
       <use xlink:href="#DejaVuSans-75" x="244.287109"/>
       <use xlink:href="#DejaVuSans-70" x="307.666016"/>
       <use xlink:href="#DejaVuSans-20" x="371.142578"/>
       <use xlink:href="#DejaVuSans-33" x="402.929688"/>
      </g>
     </g>
    </g>
    <g id="ytick_4">
     <g id="line2d_12">
      <g>
       <use xlink:href="#m62af744281" x="74.532813" y="167.220982" style="stroke: #000000; stroke-width: 0.8"/>
      </g>
     </g>
     <g id="text_13">
      <!-- Startup 4 -->
      <g transform="translate(20.878125 171.020201) scale(0.1 -0.1)">
       <use xlink:href="#DejaVuSans-53"/>
       <use xlink:href="#DejaVuSans-74" x="63.476562"/>
       <use xlink:href="#DejaVuSans-61" x="102.685547"/>
       <use xlink:href="#DejaVuSans-72" x="163.964844"/>
       <use xlink:href="#DejaVuSans-74" x="205.078125"/>
       <use xlink:href="#DejaVuSans-75" x="244.287109"/>
       <use xlink:href="#DejaVuSans-70" x="307.666016"/>
       <use xlink:href="#DejaVuSans-20" x="371.142578"/>
       <use xlink:href="#DejaVuSans-34" x="402.929688"/>
      </g>
     </g>
    </g>
    <g id="text_14">
     <!-- Startups -->
     <g transform="translate(14.798438 297.059844) rotate(-90) scale(0.1 -0.1)">
      <use xlink:href="#DejaVuSans-53"/>
      <use xlink:href="#DejaVuSans-74" x="63.476562"/>
      <use xlink:href="#DejaVuSans-61" x="102.685547"/>
      <use xlink:href="#DejaVuSans-72" x="163.964844"/>
      <use xlink:href="#DejaVuSans-74" x="205.078125"/>
      <use xlink:href="#DejaVuSans-75" x="244.287109"/>
      <use xlink:href="#DejaVuSans-70" x="307.666016"/>
      <use xlink:href="#DejaVuSans-73" x="371.142578"/>
     </g>
    </g>
   </g>
   <g id="line2d_13">
    <path d="M 350.758906 529.478125 
L 350.758906 22.318125 
" clip-path="url(#p8e85c872e3)" style="fill: none; stroke-dasharray: 5.55,2.4; stroke-dashoffset: 0; stroke: #ff0000; stroke-opacity: 0.5; stroke-width: 1.5"/>
   </g>
   <g id="line2d_14">
    <path d="M 496.78151 529.478125 
L 496.78151 22.318125 
" clip-path="url(#p8e85c872e3)" style="fill: none; stroke-dasharray: 5.55,2.4; stroke-dashoffset: 0; stroke: #008000; stroke-opacity: 0.5; stroke-width: 1.5"/>
   </g>
   <g id="line2d_15">
    <path d="M 575.877088 529.478125 
L 575.877088 22.318125 
" clip-path="url(#p8e85c872e3)" style="fill: none; stroke-dasharray: 5.55,2.4; stroke-dashoffset: 0; stroke: #0000ff; stroke-opacity: 0.5; stroke-width: 1.5"/>
   </g>
   <g id="patch_303">
    <path d="M 74.532813 529.478125 
L 74.532813 22.318125 
" style="fill: none; stroke: #000000; stroke-width: 0.8; stroke-linejoin: miter; stroke-linecap: square"/>
   </g>
   <g id="patch_304">
    <path d="M 1065.052813 529.478125 
L 1065.052813 22.318125 
" style="fill: none; stroke: #000000; stroke-width: 0.8; stroke-linejoin: miter; stroke-linecap: square"/>
   </g>
   <g id="patch_305">
    <path d="M 74.532813 529.478125 
L 1065.052813 529.478125 
" style="fill: none; stroke: #000000; stroke-width: 0.8; stroke-linejoin: miter; stroke-linecap: square"/>
   </g>
   <g id="patch_306">
    <path d="M 74.532813 22.318125 
L 1065.052813 22.318125 
" style="fill: none; stroke: #000000; stroke-width: 0.8; stroke-linejoin: miter; stroke-linecap: square"/>
   </g>
   <g id="text_15">
    <!-- Startup Ownership Structure Over Time -->
    <g transform="translate(450.88125 16.318125) scale(0.12 -0.12)">
     <defs>
      <path id="DejaVuSans-4f" d="M 2522 4238 
Q 1834 4238 1429 3725 
Q 1025 3213 1025 2328 
Q 1025 1447 1429 934 
Q 1834 422 2522 422 
Q 3209 422 3611 934 
Q 4013 1447 4013 2328 
Q 4013 3213 3611 3725 
Q 3209 4238 2522 4238 
z
M 2522 4750 
Q 3503 4750 4090 4092 
Q 4678 3434 4678 2328 
Q 4678 1225 4090 567 
Q 3503 -91 2522 -91 
Q 1538 -91 948 565 
Q 359 1222 359 2328 
Q 359 3434 948 4092 
Q 1538 4750 2522 4750 
z
" transform="scale(0.015625)"/>
      <path id="DejaVuSans-77" d="M 269 3500 
L 844 3500 
L 1563 769 
L 2278 3500 
L 2956 3500 
L 3675 769 
L 4391 3500 
L 4966 3500 
L 4050 0 
L 3372 0 
L 2619 2869 
L 1863 0 
L 1184 0 
L 269 3500 
z
" transform="scale(0.015625)"/>
      <path id="DejaVuSans-6e" d="M 3513 2113 
L 3513 0 
L 2938 0 
L 2938 2094 
Q 2938 2591 2744 2837 
Q 2550 3084 2163 3084 
Q 1697 3084 1428 2787 
Q 1159 2491 1159 1978 
L 1159 0 
L 581 0 
L 581 3500 
L 1159 3500 
L 1159 2956 
Q 1366 3272 1645 3428 
Q 1925 3584 2291 3584 
Q 2894 3584 3203 3211 
Q 3513 2838 3513 2113 
z
" transform="scale(0.015625)"/>
      <path id="DejaVuSans-65" d="M 3597 1894 
L 3597 1613 
L 953 1613 
Q 991 1019 1311 708 
Q 1631 397 2203 397 
Q 2534 397 2845 478 
Q 3156 559 3463 722 
L 3463 178 
Q 3153 47 2828 -22 
Q 2503 -91 2169 -91 
Q 1331 -91 842 396 
Q 353 884 353 1716 
Q 353 2575 817 3079 
Q 1281 3584 2069 3584 
Q 2775 3584 3186 3129 
Q 3597 2675 3597 1894 
z
M 3022 2063 
Q 3016 2534 2758 2815 
Q 2500 3097 2075 3097 
Q 1594 3097 1305 2825 
Q 1016 2553 972 2059 
L 3022 2063 
z
" transform="scale(0.015625)"/>
      <path id="DejaVuSans-68" d="M 3513 2113 
L 3513 0 
L 2938 0 
L 2938 2094 
Q 2938 2591 2744 2837 
Q 2550 3084 2163 3084 
Q 1697 3084 1428 2787 
Q 1159 2491 1159 1978 
L 1159 0 
L 581 0 
L 581 4863 
L 1159 4863 
L 1159 2956 
Q 1366 3272 1645 3428 
Q 1925 3584 2291 3584 
Q 2894 3584 3203 3211 
Q 3513 2838 3513 2113 
z
" transform="scale(0.015625)"/>
      <path id="DejaVuSans-69" d="M 603 3500 
L 1178 3500 
L 1178 0 
L 603 0 
L 603 3500 
z
M 603 4863 
L 1178 4863 
L 1178 4134 
L 603 4134 
L 603 4863 
z
" transform="scale(0.015625)"/>
      <path id="DejaVuSans-63" d="M 3122 3366 
L 3122 2828 
Q 2878 2963 2633 3030 
Q 2388 3097 2138 3097 
Q 1578 3097 1268 2742 
Q 959 2388 959 1747 
Q 959 1106 1268 751 
Q 1578 397 2138 397 
Q 2388 397 2633 464 
Q 2878 531 3122 666 
L 3122 134 
Q 2881 22 2623 -34 
Q 2366 -91 2075 -91 
Q 1284 -91 818 406 
Q 353 903 353 1747 
Q 353 2603 823 3093 
Q 1294 3584 2113 3584 
Q 2378 3584 2631 3529 
Q 2884 3475 3122 3366 
z
" transform="scale(0.015625)"/>
      <path id="DejaVuSans-76" d="M 191 3500 
L 800 3500 
L 1894 563 
L 2988 3500 
L 3597 3500 
L 2284 0 
L 1503 0 
L 191 3500 
z
" transform="scale(0.015625)"/>
      <path id="DejaVuSans-54" d="M -19 4666 
L 3928 4666 
L 3928 4134 
L 2272 4134 
L 2272 0 
L 1638 0 
L 1638 4134 
L -19 4134 
L -19 4666 
z
" transform="scale(0.015625)"/>
      <path id="DejaVuSans-6d" d="M 3328 2828 
Q 3544 3216 3844 3400 
Q 4144 3584 4550 3584 
Q 5097 3584 5394 3201 
Q 5691 2819 5691 2113 
L 5691 0 
L 5113 0 
L 5113 2094 
Q 5113 2597 4934 2840 
Q 4756 3084 4391 3084 
Q 3944 3084 3684 2787 
Q 3425 2491 3425 1978 
L 3425 0 
L 2847 0 
L 2847 2094 
Q 2847 2600 2669 2842 
Q 2491 3084 2119 3084 
Q 1678 3084 1418 2786 
Q 1159 2488 1159 1978 
L 1159 0 
L 581 0 
L 581 3500 
L 1159 3500 
L 1159 2956 
Q 1356 3278 1631 3431 
Q 1906 3584 2284 3584 
Q 2666 3584 2933 3390 
Q 3200 3197 3328 2828 
z
" transform="scale(0.015625)"/>
     </defs>
     <use xlink:href="#DejaVuSans-53"/>
     <use xlink:href="#DejaVuSans-74" x="63.476562"/>
     <use xlink:href="#DejaVuSans-61" x="102.685547"/>
     <use xlink:href="#DejaVuSans-72" x="163.964844"/>
     <use xlink:href="#DejaVuSans-74" x="205.078125"/>
     <use xlink:href="#DejaVuSans-75" x="244.287109"/>
     <use xlink:href="#DejaVuSans-70" x="307.666016"/>
     <use xlink:href="#DejaVuSans-20" x="371.142578"/>
     <use xlink:href="#DejaVuSans-4f" x="402.929688"/>
     <use xlink:href="#DejaVuSans-77" x="481.640625"/>
     <use xlink:href="#DejaVuSans-6e" x="563.427734"/>
     <use xlink:href="#DejaVuSans-65" x="626.806641"/>
     <use xlink:href="#DejaVuSans-72" x="688.330078"/>
     <use xlink:href="#DejaVuSans-73" x="729.443359"/>
     <use xlink:href="#DejaVuSans-68" x="781.542969"/>
     <use xlink:href="#DejaVuSans-69" x="844.921875"/>
     <use xlink:href="#DejaVuSans-70" x="872.705078"/>
     <use xlink:href="#DejaVuSans-20" x="936.181641"/>
     <use xlink:href="#DejaVuSans-53" x="967.96875"/>
     <use xlink:href="#DejaVuSans-74" x="1031.445312"/>
     <use xlink:href="#DejaVuSans-72" x="1070.654297"/>
     <use xlink:href="#DejaVuSans-75" x="1111.767578"/>
     <use xlink:href="#DejaVuSans-63" x="1175.146484"/>
     <use xlink:href="#DejaVuSans-74" x="1230.126953"/>
     <use xlink:href="#DejaVuSans-75" x="1269.335938"/>
     <use xlink:href="#DejaVuSans-72" x="1332.714844"/>
     <use xlink:href="#DejaVuSans-65" x="1371.578125"/>
     <use xlink:href="#DejaVuSans-20" x="1433.101562"/>
     <use xlink:href="#DejaVuSans-4f" x="1464.888672"/>
     <use xlink:href="#DejaVuSans-76" x="1543.599609"/>
     <use xlink:href="#DejaVuSans-65" x="1602.779297"/>
     <use xlink:href="#DejaVuSans-72" x="1664.302734"/>
     <use xlink:href="#DejaVuSans-20" x="1705.416016"/>
     <use xlink:href="#DejaVuSans-54" x="1737.203125"/>
     <use xlink:href="#DejaVuSans-69" x="1795.162109"/>
     <use xlink:href="#DejaVuSans-6d" x="1822.945312"/>
     <use xlink:href="#DejaVuSans-65" x="1920.357422"/>
    </g>
   </g>
   <g id="legend_1">
    <g id="patch_307">
     <path d="M 963.948125 118.386875 
L 1058.052813 118.386875 
Q 1060.052813 118.386875 1060.052813 116.386875 
L 1060.052813 29.318125 
Q 1060.052813 27.318125 1058.052813 27.318125 
L 963.948125 27.318125 
Q 961.948125 27.318125 961.948125 29.318125 
L 961.948125 116.386875 
Q 961.948125 118.386875 963.948125 118.386875 
z
" style="fill: #ffffff; opacity: 0.8; stroke: #cccccc; stroke-linejoin: miter"/>
    </g>
    <g id="line2d_16">
     <path d="M 965.948125 35.416562 
L 975.948125 35.416562 
L 985.948125 35.416562 
" style="fill: none; stroke-dasharray: 5.55,2.4; stroke-dashoffset: 0; stroke: #ff0000; stroke-opacity: 0.5; stroke-width: 1.5"/>
    </g>
    <g id="text_16">
     <!-- A* Fund -->
     <g transform="translate(993.948125 38.916562) scale(0.1 -0.1)">
      <defs>
       <path id="DejaVuSans-41" d="M 2188 4044 
L 1331 1722 
L 3047 1722 
L 2188 4044 
z
M 1831 4666 
L 2547 4666 
L 4325 0 
L 3669 0 
L 3244 1197 
L 1141 1197 
L 716 0 
L 50 0 
L 1831 4666 
z
" transform="scale(0.015625)"/>
       <path id="DejaVuSans-2a" d="M 3009 3897 
L 1888 3291 
L 3009 2681 
L 2828 2375 
L 1778 3009 
L 1778 1831 
L 1422 1831 
L 1422 3009 
L 372 2375 
L 191 2681 
L 1313 3291 
L 191 3897 
L 372 4206 
L 1422 3572 
L 1422 4750 
L 1778 4750 
L 1778 3572 
L 2828 4206 
L 3009 3897 
z
" transform="scale(0.015625)"/>
       <path id="DejaVuSans-46" d="M 628 4666 
L 3309 4666 
L 3309 4134 
L 1259 4134 
L 1259 2759 
L 3109 2759 
L 3109 2228 
L 1259 2228 
L 1259 0 
L 628 0 
L 628 4666 
z
" transform="scale(0.015625)"/>
       <path id="DejaVuSans-64" d="M 2906 2969 
L 2906 4863 
L 3481 4863 
L 3481 0 
L 2906 0 
L 2906 525 
Q 2725 213 2448 61 
Q 2172 -91 1784 -91 
Q 1150 -91 751 415 
Q 353 922 353 1747 
Q 353 2572 751 3078 
Q 1150 3584 1784 3584 
Q 2172 3584 2448 3432 
Q 2725 3281 2906 2969 
z
M 947 1747 
Q 947 1113 1208 752 
Q 1469 391 1925 391 
Q 2381 391 2643 752 
Q 2906 1113 2906 1747 
Q 2906 2381 2643 2742 
Q 2381 3103 1925 3103 
Q 1469 3103 1208 2742 
Q 947 2381 947 1747 
z
" transform="scale(0.015625)"/>
      </defs>
      <use xlink:href="#DejaVuSans-41"/>
      <use xlink:href="#DejaVuSans-2a" x="68.408203"/>
      <use xlink:href="#DejaVuSans-20" x="118.408203"/>
      <use xlink:href="#DejaVuSans-46" x="150.195312"/>
      <use xlink:href="#DejaVuSans-75" x="202.214844"/>
      <use xlink:href="#DejaVuSans-6e" x="265.59375"/>
      <use xlink:href="#DejaVuSans-64" x="328.972656"/>
     </g>
    </g>
    <g id="line2d_17">
     <path d="M 965.948125 50.094687 
L 975.948125 50.094687 
L 985.948125 50.094687 
" style="fill: none; stroke-dasharray: 5.55,2.4; stroke-dashoffset: 0; stroke: #008000; stroke-opacity: 0.5; stroke-width: 1.5"/>
    </g>
    <g id="text_17">
     <!-- Founder 1 -->
     <g transform="translate(993.948125 53.594687) scale(0.1 -0.1)">
      <defs>
       <path id="DejaVuSans-6f" d="M 1959 3097 
Q 1497 3097 1228 2736 
Q 959 2375 959 1747 
Q 959 1119 1226 758 
Q 1494 397 1959 397 
Q 2419 397 2687 759 
Q 2956 1122 2956 1747 
Q 2956 2369 2687 2733 
Q 2419 3097 1959 3097 
z
M 1959 3584 
Q 2709 3584 3137 3096 
Q 3566 2609 3566 1747 
Q 3566 888 3137 398 
Q 2709 -91 1959 -91 
Q 1206 -91 779 398 
Q 353 888 353 1747 
Q 353 2609 779 3096 
Q 1206 3584 1959 3584 
z
" transform="scale(0.015625)"/>
      </defs>
      <use xlink:href="#DejaVuSans-46"/>
      <use xlink:href="#DejaVuSans-6f" x="53.894531"/>
      <use xlink:href="#DejaVuSans-75" x="115.076172"/>
      <use xlink:href="#DejaVuSans-6e" x="178.455078"/>
      <use xlink:href="#DejaVuSans-64" x="241.833984"/>
      <use xlink:href="#DejaVuSans-65" x="305.310547"/>
      <use xlink:href="#DejaVuSans-72" x="366.833984"/>
      <use xlink:href="#DejaVuSans-20" x="407.947266"/>
      <use xlink:href="#DejaVuSans-31" x="439.734375"/>
     </g>
    </g>
    <g id="line2d_18">
     <path d="M 965.948125 64.772812 
L 975.948125 64.772812 
L 985.948125 64.772812 
" style="fill: none; stroke-dasharray: 5.55,2.4; stroke-dashoffset: 0; stroke: #0000ff; stroke-opacity: 0.5; stroke-width: 1.5"/>
    </g>
    <g id="text_18">
     <!-- Founder 2 -->
     <g transform="translate(993.948125 68.272812) scale(0.1 -0.1)">
      <use xlink:href="#DejaVuSans-46"/>
      <use xlink:href="#DejaVuSans-6f" x="53.894531"/>
      <use xlink:href="#DejaVuSans-75" x="115.076172"/>
      <use xlink:href="#DejaVuSans-6e" x="178.455078"/>
      <use xlink:href="#DejaVuSans-64" x="241.833984"/>
      <use xlink:href="#DejaVuSans-65" x="305.310547"/>
      <use xlink:href="#DejaVuSans-72" x="366.833984"/>
      <use xlink:href="#DejaVuSans-20" x="407.947266"/>
      <use xlink:href="#DejaVuSans-32" x="439.734375"/>
     </g>
    </g>
    <g id="patch_308">
     <path d="M 965.948125 82.950937 
L 985.948125 82.950937 
L 985.948125 75.950937 
L 965.948125 75.950937 
z
" style="fill: #0000ff"/>
    </g>
    <g id="text_19">
     <!-- Failure -->
     <g transform="translate(993.948125 82.950937) scale(0.1 -0.1)">
      <defs>
       <path id="DejaVuSans-6c" d="M 603 4863 
L 1178 4863 
L 1178 0 
L 603 0 
L 603 4863 
z
" transform="scale(0.015625)"/>
      </defs>
      <use xlink:href="#DejaVuSans-46"/>
      <use xlink:href="#DejaVuSans-61" x="48.394531"/>
      <use xlink:href="#DejaVuSans-69" x="109.673828"/>
      <use xlink:href="#DejaVuSans-6c" x="137.457031"/>
      <use xlink:href="#DejaVuSans-75" x="165.240234"/>
      <use xlink:href="#DejaVuSans-72" x="228.619141"/>
      <use xlink:href="#DejaVuSans-65" x="267.482422"/>
     </g>
    </g>
    <g id="patch_309">
     <path d="M 965.948125 97.629062 
L 985.948125 97.629062 
L 985.948125 90.629062 
L 965.948125 90.629062 
z
" style="fill: #0000ff"/>
    </g>
    <g id="text_20">
     <!-- Acquisition -->
     <g transform="translate(993.948125 97.629062) scale(0.1 -0.1)">
      <defs>
       <path id="DejaVuSans-71" d="M 947 1747 
Q 947 1113 1208 752 
Q 1469 391 1925 391 
Q 2381 391 2643 752 
Q 2906 1113 2906 1747 
Q 2906 2381 2643 2742 
Q 2381 3103 1925 3103 
Q 1469 3103 1208 2742 
Q 947 2381 947 1747 
z
M 2906 525 
Q 2725 213 2448 61 
Q 2172 -91 1784 -91 
Q 1150 -91 751 415 
Q 353 922 353 1747 
Q 353 2572 751 3078 
Q 1150 3584 1784 3584 
Q 2172 3584 2448 3432 
Q 2725 3281 2906 2969 
L 2906 3500 
L 3481 3500 
L 3481 -1331 
L 2906 -1331 
L 2906 525 
z
" transform="scale(0.015625)"/>
      </defs>
      <use xlink:href="#DejaVuSans-41"/>
      <use xlink:href="#DejaVuSans-63" x="66.658203"/>
      <use xlink:href="#DejaVuSans-71" x="121.638672"/>
      <use xlink:href="#DejaVuSans-75" x="185.115234"/>
      <use xlink:href="#DejaVuSans-69" x="248.494141"/>
      <use xlink:href="#DejaVuSans-73" x="276.277344"/>
      <use xlink:href="#DejaVuSans-69" x="328.376953"/>
      <use xlink:href="#DejaVuSans-74" x="356.160156"/>
      <use xlink:href="#DejaVuSans-69" x="395.369141"/>
      <use xlink:href="#DejaVuSans-6f" x="423.152344"/>
      <use xlink:href="#DejaVuSans-6e" x="484.333984"/>
     </g>
    </g>
    <g id="patch_310">
     <path d="M 965.948125 112.307187 
L 985.948125 112.307187 
L 985.948125 105.307187 
L 965.948125 105.307187 
z
" style="fill: #0000ff"/>
    </g>
    <g id="text_21">
     <!-- New Startup -->
     <g transform="translate(993.948125 112.307187) scale(0.1 -0.1)">
      <defs>
       <path id="DejaVuSans-4e" d="M 628 4666 
L 1478 4666 
L 3547 763 
L 3547 4666 
L 4159 4666 
L 4159 0 
L 3309 0 
L 1241 3903 
L 1241 0 
L 628 0 
L 628 4666 
z
" transform="scale(0.015625)"/>
      </defs>
      <use xlink:href="#DejaVuSans-4e"/>
      <use xlink:href="#DejaVuSans-65" x="74.804688"/>
      <use xlink:href="#DejaVuSans-77" x="136.328125"/>
      <use xlink:href="#DejaVuSans-20" x="218.115234"/>
      <use xlink:href="#DejaVuSans-53" x="249.902344"/>
      <use xlink:href="#DejaVuSans-74" x="313.378906"/>
      <use xlink:href="#DejaVuSans-61" x="352.587891"/>
      <use xlink:href="#DejaVuSans-72" x="413.867188"/>
      <use xlink:href="#DejaVuSans-74" x="454.980469"/>
      <use xlink:href="#DejaVuSans-75" x="494.189453"/>
      <use xlink:href="#DejaVuSans-70" x="557.568359"/>
     </g>
    </g>
   </g>
  </g>
 </g>
 <defs>
  <clipPath id="p8e85c872e3">
   <rect x="74.532813" y="22.318125" width="990.52" height="507.16"/>
  </clipPath>
 </defs>
</svg>
